<svg width="21" height="21" viewBox="0 0 21 21" fill="none" xmlns="http://www.w3.org/2000/svg">
<path d="M0.337459 7.61814L4.48968 7.61814L4.48968 20.9698H0.337459L0.337459 7.61814ZM2.40623 0.986328C3.7414 0.986328 4.81246 2.05739 4.81246 3.39256C4.81246 4.72772 3.7414 5.79879 2.40623 5.79879C1.07107 5.79879 0 4.71305 0 3.39256C0 2.07207 1.07107 0.986328 2.40623 0.986328Z" fill="#7E7E7E"/>
<path d="M7.08682 7.61749L11.063 7.61749V9.43683H11.1217C11.6792 8.38044 13.029 7.28003 15.0538 7.28003C19.25 7.28003 20.0276 10.0384 20.0276 13.6331V20.9545H15.8754V14.4694C15.8754 12.9141 15.8461 10.9334 13.7186 10.9334C11.5912 10.9334 11.2244 12.6207 11.2244 14.3667L11.2244 20.9691H7.07214L7.07214 7.61749H7.08682Z" fill="#7E7E7E"/>
</svg>
