<svg width="34" height="34" viewBox="0 0 34 34" fill="none" xmlns="http://www.w3.org/2000/svg">
<path fill-rule="evenodd" clip-rule="evenodd" d="M33.5731 17.0009C33.5731 26.1535 26.1535 33.5731 17.0009 33.5731C7.84833 33.5731 0.428711 26.1535 0.428711 17.0009C0.428711 7.84833 7.84833 0.428711 17.0009 0.428711C26.1535 0.428711 33.5731 7.84833 33.5731 17.0009ZM22.3548 23.6829H23.2794C24.547 23.6829 25.5462 23.3328 26.277 22.6326C27.0077 21.9323 27.7384 20.7145 28.4692 18.9639C28.5736 18.7355 28.663 18.6289 28.7824 18.6289H28.8718H28.9315L27.7981 24.2919C27.1568 24.094 25.8892 23.9874 23.9953 23.9874H15.6737V23.8656C15.6737 23.7591 15.7781 23.6982 16.0018 23.6373C16.0738 23.6226 16.1489 23.6063 16.2266 23.5895C16.3903 23.554 16.5654 23.516 16.7475 23.4851C17.0308 23.4242 17.2694 23.2415 17.4931 22.937C17.7168 22.6326 17.8212 22.2063 17.8212 21.6431V11.7025C17.8212 11.2458 17.7168 10.8957 17.4931 10.6522C17.2694 10.4086 17.0308 10.2564 16.7624 10.2107C16.5885 10.1811 16.4272 10.1451 16.2743 10.1111L16.2743 10.1111C16.1911 10.0925 16.1105 10.0745 16.0317 10.0585C15.808 9.99757 15.7036 9.92145 15.7036 9.83012V9.70833H22.6978V9.83012C22.6978 9.93668 22.5785 10.0128 22.3548 10.0585C22.1311 10.1194 21.8776 10.165 21.6092 10.2107C21.3407 10.2564 21.0872 10.4086 20.8635 10.6674C20.6398 10.9262 20.5205 11.2763 20.5205 11.7178V16.8326V21.9475C20.5205 22.5108 20.6696 22.9522 20.953 23.2415C21.2363 23.5459 21.7135 23.6829 22.3548 23.6829ZM10.7279 22.3916C11.1882 23.0172 11.9556 23.3915 13.0226 23.522V24.0068C9.12166 23.9395 7.16413 22.1886 7.16413 18.7679V11.6704C7.16413 11.2212 7.05932 10.8768 6.83471 10.6372C6.62508 10.3976 6.37052 10.2479 6.11597 10.2029C5.92584 10.1694 5.73571 10.1275 5.5643 10.0897L5.56427 10.0897C5.5062 10.0769 5.45027 10.0646 5.39723 10.0532C5.18759 9.9933 5.0678 9.91843 5.0678 9.82859V9.7088H12.0456V9.82859C12.0456 9.9334 11.9557 9.9933 11.791 10.0532C11.6113 10.0981 11.4167 10.143 11.1921 10.173C10.9675 10.2029 10.7429 10.3077 10.5332 10.4725C10.3236 10.6372 10.1739 10.8768 10.099 11.1613C9.93428 11.5955 9.84444 12.0896 9.84444 12.6736V18.9177C9.84444 20.445 10.1439 21.598 10.7279 22.3916Z" fill="white"/>
</svg>
