<svg width="77" height="79" viewBox="0 0 77 79" fill="none" xmlns="http://www.w3.org/2000/svg">
<mask id="path-1-inside-1_1_355" fill="white">
<path fill-rule="evenodd" clip-rule="evenodd" d="M38.2869 78.0625C38.2872 78.0625 38.2875 78.0625 38.2878 78.0625C59.6681 78.0625 77.0001 60.7305 77.0001 39.3502C77.0001 17.97 59.6681 0.637939 38.2878 0.637939C38.2875 0.637939 38.2872 0.637939 38.2869 0.637939V78.0625Z"/>
</mask>
<path d="M38.2869 78.0625H37.2869V79.0625H38.2869V78.0625ZM38.2869 0.637939L38.2868 -0.362061L37.2869 -0.362036V0.637939H38.2869ZM38.2878 77.0625C38.2878 77.0625 38.2878 77.0625 38.2878 77.0625C38.2878 77.0625 38.2878 77.0625 38.2878 77.0625C38.2878 77.0625 38.2878 77.0625 38.2878 77.0625C38.2878 77.0625 38.2878 77.0625 38.2878 77.0625C38.2878 77.0625 38.2878 77.0625 38.2878 77.0625C38.2878 77.0625 38.2878 77.0625 38.2878 77.0625C38.2878 77.0625 38.2878 77.0625 38.2878 77.0625C38.2878 77.0625 38.2878 77.0625 38.2878 77.0625C38.2878 77.0625 38.2878 77.0625 38.2878 77.0625C38.2878 77.0625 38.2878 77.0625 38.2878 77.0625C38.2878 77.0625 38.2878 77.0625 38.2878 77.0625C38.2878 77.0625 38.2878 77.0625 38.2878 77.0625C38.2878 77.0625 38.2878 77.0625 38.2878 77.0625C38.2878 77.0625 38.2878 77.0625 38.2878 77.0625C38.2878 77.0625 38.2878 77.0625 38.2878 77.0625C38.2878 77.0625 38.2878 77.0625 38.2878 77.0625C38.2878 77.0625 38.2878 77.0625 38.2878 77.0625C38.2878 77.0625 38.2878 77.0625 38.2878 77.0625C38.2878 77.0625 38.2878 77.0625 38.2878 77.0625C38.2878 77.0625 38.2878 77.0625 38.2878 77.0625C38.2878 77.0625 38.2878 77.0625 38.2878 77.0625C38.2878 77.0625 38.2878 77.0625 38.2878 77.0625C38.2878 77.0625 38.2878 77.0625 38.2878 77.0625C38.2878 77.0625 38.2878 77.0625 38.2878 77.0625C38.2878 77.0625 38.2878 77.0625 38.2878 77.0625C38.2878 77.0625 38.2878 77.0625 38.2878 77.0625C38.2878 77.0625 38.2878 77.0625 38.2878 77.0625C38.2878 77.0625 38.2878 77.0625 38.2878 77.0625C38.2878 77.0625 38.2878 77.0625 38.2878 77.0625C38.2878 77.0625 38.2878 77.0625 38.2878 77.0625C38.2878 77.0625 38.2878 77.0625 38.2878 77.0625C38.2878 77.0625 38.2878 77.0625 38.2878 77.0625C38.2878 77.0625 38.2878 77.0625 38.2878 77.0625C38.2878 77.0625 38.2878 77.0625 38.2878 77.0625C38.2878 77.0625 38.2878 77.0625 38.2878 77.0625C38.2878 77.0625 38.2878 77.0625 38.2878 77.0625C38.2878 77.0625 38.2878 77.0625 38.2878 77.0625C38.2878 77.0625 38.2878 77.0625 38.2878 77.0625C38.2878 77.0625 38.2878 77.0625 38.2878 77.0625C38.2878 77.0625 38.2878 77.0625 38.2878 77.0625C38.2878 77.0625 38.2878 77.0625 38.2878 77.0625C38.2878 77.0625 38.2878 77.0625 38.2878 77.0625C38.2878 77.0625 38.2878 77.0625 38.2878 77.0625C38.2878 77.0625 38.2878 77.0625 38.2878 77.0625C38.2878 77.0625 38.2878 77.0625 38.2878 77.0625C38.2878 77.0625 38.2878 77.0625 38.2878 77.0625C38.2878 77.0625 38.2878 77.0625 38.2878 77.0625C38.2878 77.0625 38.2878 77.0625 38.2878 77.0625C38.2878 77.0625 38.2878 77.0625 38.2878 77.0625C38.2878 77.0625 38.2878 77.0625 38.2877 77.0625C38.2877 77.0625 38.2877 77.0625 38.2877 77.0625C38.2877 77.0625 38.2877 77.0625 38.2877 77.0625C38.2877 77.0625 38.2877 77.0625 38.2877 77.0625C38.2877 77.0625 38.2877 77.0625 38.2877 77.0625C38.2877 77.0625 38.2877 77.0625 38.2877 77.0625C38.2877 77.0625 38.2877 77.0625 38.2877 77.0625C38.2877 77.0625 38.2877 77.0625 38.2877 77.0625C38.2877 77.0625 38.2877 77.0625 38.2877 77.0625C38.2877 77.0625 38.2877 77.0625 38.2877 77.0625C38.2877 77.0625 38.2877 77.0625 38.2877 77.0625C38.2877 77.0625 38.2877 77.0625 38.2877 77.0625C38.2877 77.0625 38.2877 77.0625 38.2877 77.0625C38.2877 77.0625 38.2877 77.0625 38.2877 77.0625C38.2877 77.0625 38.2877 77.0625 38.2877 77.0625C38.2877 77.0625 38.2877 77.0625 38.2877 77.0625C38.2877 77.0625 38.2877 77.0625 38.2877 77.0625C38.2877 77.0625 38.2877 77.0625 38.2877 77.0625C38.2877 77.0625 38.2877 77.0625 38.2877 77.0625C38.2877 77.0625 38.2877 77.0625 38.2877 77.0625C38.2877 77.0625 38.2877 77.0625 38.2877 77.0625C38.2877 77.0625 38.2877 77.0625 38.2877 77.0625C38.2877 77.0625 38.2877 77.0625 38.2877 77.0625C38.2877 77.0625 38.2877 77.0625 38.2877 77.0625C38.2877 77.0625 38.2877 77.0625 38.2877 77.0625C38.2877 77.0625 38.2877 77.0625 38.2877 77.0625C38.2877 77.0625 38.2877 77.0625 38.2877 77.0625C38.2877 77.0625 38.2877 77.0625 38.2877 77.0625C38.2877 77.0625 38.2877 77.0625 38.2877 77.0625C38.2877 77.0625 38.2877 77.0625 38.2877 77.0625C38.2877 77.0625 38.2877 77.0625 38.2877 77.0625C38.2877 77.0625 38.2877 77.0625 38.2877 77.0625C38.2877 77.0625 38.2877 77.0625 38.2877 77.0625C38.2877 77.0625 38.2877 77.0625 38.2877 77.0625C38.2877 77.0625 38.2877 77.0625 38.2877 77.0625C38.2877 77.0625 38.2877 77.0625 38.2877 77.0625C38.2877 77.0625 38.2877 77.0625 38.2877 77.0625C38.2877 77.0625 38.2877 77.0625 38.2877 77.0625C38.2877 77.0625 38.2877 77.0625 38.2877 77.0625C38.2877 77.0625 38.2877 77.0625 38.2877 77.0625C38.2877 77.0625 38.2877 77.0625 38.2877 77.0625C38.2877 77.0625 38.2877 77.0625 38.2877 77.0625C38.2877 77.0625 38.2877 77.0625 38.2877 77.0625C38.2877 77.0625 38.2877 77.0625 38.2877 77.0625C38.2877 77.0625 38.2877 77.0625 38.2877 77.0625C38.2877 77.0625 38.2877 77.0625 38.2877 77.0625C38.2877 77.0625 38.2877 77.0625 38.2877 77.0625C38.2877 77.0625 38.2877 77.0625 38.2877 77.0625C38.2877 77.0625 38.2877 77.0625 38.2877 77.0625C38.2877 77.0625 38.2877 77.0625 38.2877 77.0625C38.2877 77.0625 38.2877 77.0625 38.2877 77.0625C38.2877 77.0625 38.2877 77.0625 38.2877 77.0625C38.2877 77.0625 38.2877 77.0625 38.2877 77.0625C38.2876 77.0625 38.2876 77.0625 38.2876 77.0625C38.2876 77.0625 38.2876 77.0625 38.2876 77.0625C38.2876 77.0625 38.2876 77.0625 38.2876 77.0625C38.2876 77.0625 38.2876 77.0625 38.2876 77.0625C38.2876 77.0625 38.2876 77.0625 38.2876 77.0625C38.2876 77.0625 38.2876 77.0625 38.2876 77.0625C38.2876 77.0625 38.2876 77.0625 38.2876 77.0625C38.2876 77.0625 38.2876 77.0625 38.2876 77.0625C38.2876 77.0625 38.2876 77.0625 38.2876 77.0625C38.2876 77.0625 38.2876 77.0625 38.2876 77.0625C38.2876 77.0625 38.2876 77.0625 38.2876 77.0625C38.2876 77.0625 38.2876 77.0625 38.2876 77.0625C38.2876 77.0625 38.2876 77.0625 38.2876 77.0625C38.2876 77.0625 38.2876 77.0625 38.2876 77.0625C38.2876 77.0625 38.2876 77.0625 38.2876 77.0625C38.2876 77.0625 38.2876 77.0625 38.2876 77.0625C38.2876 77.0625 38.2876 77.0625 38.2876 77.0625C38.2876 77.0625 38.2876 77.0625 38.2876 77.0625C38.2876 77.0625 38.2876 77.0625 38.2876 77.0625C38.2876 77.0625 38.2876 77.0625 38.2876 77.0625C38.2876 77.0625 38.2876 77.0625 38.2876 77.0625C38.2876 77.0625 38.2876 77.0625 38.2876 77.0625C38.2876 77.0625 38.2876 77.0625 38.2876 77.0625C38.2876 77.0625 38.2876 77.0625 38.2876 77.0625C38.2876 77.0625 38.2876 77.0625 38.2876 77.0625C38.2876 77.0625 38.2876 77.0625 38.2876 77.0625C38.2876 77.0625 38.2876 77.0625 38.2876 77.0625C38.2876 77.0625 38.2876 77.0625 38.2876 77.0625C38.2876 77.0625 38.2876 77.0625 38.2876 77.0625C38.2876 77.0625 38.2876 77.0625 38.2876 77.0625C38.2876 77.0625 38.2876 77.0625 38.2876 77.0625C38.2876 77.0625 38.2876 77.0625 38.2876 77.0625C38.2876 77.0625 38.2876 77.0625 38.2876 77.0625C38.2876 77.0625 38.2876 77.0625 38.2876 77.0625C38.2876 77.0625 38.2876 77.0625 38.2876 77.0625C38.2876 77.0625 38.2876 77.0625 38.2876 77.0625C38.2876 77.0625 38.2876 77.0625 38.2876 77.0625C38.2876 77.0625 38.2876 77.0625 38.2876 77.0625C38.2876 77.0625 38.2876 77.0625 38.2876 77.0625C38.2876 77.0625 38.2876 77.0625 38.2876 77.0625C38.2876 77.0625 38.2876 77.0625 38.2876 77.0625C38.2876 77.0625 38.2876 77.0625 38.2876 77.0625C38.2876 77.0625 38.2876 77.0625 38.2876 77.0625C38.2876 77.0625 38.2876 77.0625 38.2876 77.0625C38.2876 77.0625 38.2876 77.0625 38.2876 77.0625C38.2876 77.0625 38.2876 77.0625 38.2876 77.0625C38.2876 77.0625 38.2876 77.0625 38.2876 77.0625C38.2876 77.0625 38.2876 77.0625 38.2876 77.0625C38.2876 77.0625 38.2876 77.0625 38.2876 77.0625C38.2876 77.0625 38.2876 77.0625 38.2876 77.0625C38.2876 77.0625 38.2876 77.0625 38.2876 77.0625C38.2876 77.0625 38.2876 77.0625 38.2876 77.0625C38.2876 77.0625 38.2875 77.0625 38.2875 77.0625C38.2875 77.0625 38.2875 77.0625 38.2875 77.0625C38.2875 77.0625 38.2875 77.0625 38.2875 77.0625C38.2875 77.0625 38.2875 77.0625 38.2875 77.0625C38.2875 77.0625 38.2875 77.0625 38.2875 77.0625C38.2875 77.0625 38.2875 77.0625 38.2875 77.0625C38.2875 77.0625 38.2875 77.0625 38.2875 77.0625C38.2875 77.0625 38.2875 77.0625 38.2875 77.0625C38.2875 77.0625 38.2875 77.0625 38.2875 77.0625C38.2875 77.0625 38.2875 77.0625 38.2875 77.0625C38.2875 77.0625 38.2875 77.0625 38.2875 77.0625C38.2875 77.0625 38.2875 77.0625 38.2875 77.0625C38.2875 77.0625 38.2875 77.0625 38.2875 77.0625C38.2875 77.0625 38.2875 77.0625 38.2875 77.0625C38.2875 77.0625 38.2875 77.0625 38.2875 77.0625C38.2875 77.0625 38.2875 77.0625 38.2875 77.0625C38.2875 77.0625 38.2875 77.0625 38.2875 77.0625C38.2875 77.0625 38.2875 77.0625 38.2875 77.0625C38.2875 77.0625 38.2875 77.0625 38.2875 77.0625C38.2875 77.0625 38.2875 77.0625 38.2875 77.0625C38.2875 77.0625 38.2875 77.0625 38.2875 77.0625C38.2875 77.0625 38.2875 77.0625 38.2875 77.0625C38.2875 77.0625 38.2875 77.0625 38.2875 77.0625C38.2875 77.0625 38.2875 77.0625 38.2875 77.0625C38.2875 77.0625 38.2875 77.0625 38.2875 77.0625C38.2875 77.0625 38.2875 77.0625 38.2875 77.0625C38.2875 77.0625 38.2875 77.0625 38.2875 77.0625C38.2875 77.0625 38.2875 77.0625 38.2875 77.0625C38.2875 77.0625 38.2875 77.0625 38.2875 77.0625C38.2875 77.0625 38.2875 77.0625 38.2875 77.0625C38.2875 77.0625 38.2875 77.0625 38.2875 77.0625C38.2875 77.0625 38.2875 77.0625 38.2875 77.0625C38.2875 77.0625 38.2875 77.0625 38.2875 77.0625C38.2875 77.0625 38.2875 77.0625 38.2875 77.0625C38.2875 77.0625 38.2875 77.0625 38.2875 77.0625C38.2875 77.0625 38.2875 77.0625 38.2875 77.0625C38.2875 77.0625 38.2875 77.0625 38.2875 77.0625C38.2875 77.0625 38.2875 77.0625 38.2875 77.0625C38.2875 77.0625 38.2875 77.0625 38.2875 77.0625C38.2875 77.0625 38.2875 77.0625 38.2875 77.0625C38.2875 77.0625 38.2875 77.0625 38.2875 77.0625C38.2875 77.0625 38.2875 77.0625 38.2875 77.0625C38.2875 77.0625 38.2875 77.0625 38.2875 77.0625C38.2875 77.0625 38.2875 77.0625 38.2875 77.0625C38.2875 77.0625 38.2875 77.0625 38.2875 77.0625C38.2875 77.0625 38.2875 77.0625 38.2875 77.0625C38.2875 77.0625 38.2875 77.0625 38.2875 77.0625C38.2875 77.0625 38.2875 77.0625 38.2875 77.0625C38.2875 77.0625 38.2875 77.0625 38.2875 77.0625C38.2875 77.0625 38.2875 77.0625 38.2875 77.0625C38.2875 77.0625 38.2875 77.0625 38.2875 77.0625C38.2875 77.0625 38.2875 77.0625 38.2875 77.0625C38.2875 77.0625 38.2874 77.0625 38.2874 77.0625C38.2874 77.0625 38.2874 77.0625 38.2874 77.0625C38.2874 77.0625 38.2874 77.0625 38.2874 77.0625C38.2874 77.0625 38.2874 77.0625 38.2874 77.0625C38.2874 77.0625 38.2874 77.0625 38.2874 77.0625C38.2874 77.0625 38.2874 77.0625 38.2874 77.0625C38.2874 77.0625 38.2874 77.0625 38.2874 77.0625C38.2874 77.0625 38.2874 77.0625 38.2874 77.0625C38.2874 77.0625 38.2874 77.0625 38.2874 77.0625C38.2874 77.0625 38.2874 77.0625 38.2874 77.0625C38.2874 77.0625 38.2874 77.0625 38.2874 77.0625C38.2874 77.0625 38.2874 77.0625 38.2874 77.0625C38.2874 77.0625 38.2874 77.0625 38.2874 77.0625C38.2874 77.0625 38.2874 77.0625 38.2874 77.0625C38.2874 77.0625 38.2874 77.0625 38.2874 77.0625C38.2874 77.0625 38.2874 77.0625 38.2874 77.0625C38.2874 77.0625 38.2874 77.0625 38.2874 77.0625C38.2874 77.0625 38.2874 77.0625 38.2874 77.0625C38.2874 77.0625 38.2874 77.0625 38.2874 77.0625C38.2874 77.0625 38.2874 77.0625 38.2874 77.0625C38.2874 77.0625 38.2874 77.0625 38.2874 77.0625C38.2874 77.0625 38.2874 77.0625 38.2874 77.0625C38.2874 77.0625 38.2874 77.0625 38.2874 77.0625C38.2874 77.0625 38.2874 77.0625 38.2874 77.0625C38.2874 77.0625 38.2874 77.0625 38.2874 77.0625C38.2874 77.0625 38.2874 77.0625 38.2874 77.0625C38.2874 77.0625 38.2874 77.0625 38.2874 77.0625C38.2874 77.0625 38.2874 77.0625 38.2874 77.0625C38.2874 77.0625 38.2874 77.0625 38.2874 77.0625C38.2874 77.0625 38.2874 77.0625 38.2874 77.0625C38.2874 77.0625 38.2874 77.0625 38.2874 77.0625C38.2874 77.0625 38.2874 77.0625 38.2874 77.0625C38.2874 77.0625 38.2874 77.0625 38.2874 77.0625C38.2874 77.0625 38.2874 77.0625 38.2874 77.0625C38.2874 77.0625 38.2874 77.0625 38.2874 77.0625C38.2874 77.0625 38.2874 77.0625 38.2874 77.0625C38.2874 77.0625 38.2874 77.0625 38.2874 77.0625C38.2874 77.0625 38.2874 77.0625 38.2874 77.0625C38.2874 77.0625 38.2874 77.0625 38.2874 77.0625C38.2874 77.0625 38.2874 77.0625 38.2874 77.0625C38.2874 77.0625 38.2874 77.0625 38.2874 77.0625C38.2874 77.0625 38.2874 77.0625 38.2874 77.0625C38.2874 77.0625 38.2874 77.0625 38.2874 77.0625C38.2874 77.0625 38.2874 77.0625 38.2874 77.0625C38.2874 77.0625 38.2874 77.0625 38.2874 77.0625C38.2874 77.0625 38.2874 77.0625 38.2874 77.0625C38.2874 77.0625 38.2874 77.0625 38.2874 77.0625C38.2874 77.0625 38.2874 77.0625 38.2874 77.0625C38.2874 77.0625 38.2874 77.0625 38.2874 77.0625C38.2874 77.0625 38.2874 77.0625 38.2874 77.0625C38.2874 77.0625 38.2874 77.0625 38.2874 77.0625C38.2874 77.0625 38.2874 77.0625 38.2874 77.0625C38.2874 77.0625 38.2874 77.0625 38.2873 77.0625C38.2873 77.0625 38.2873 77.0625 38.2873 77.0625C38.2873 77.0625 38.2873 77.0625 38.2873 77.0625C38.2873 77.0625 38.2873 77.0625 38.2873 77.0625C38.2873 77.0625 38.2873 77.0625 38.2873 77.0625C38.2873 77.0625 38.2873 77.0625 38.2873 77.0625C38.2873 77.0625 38.2873 77.0625 38.2873 77.0625C38.2873 77.0625 38.2873 77.0625 38.2873 77.0625C38.2873 77.0625 38.2873 77.0625 38.2873 77.0625C38.2873 77.0625 38.2873 77.0625 38.2873 77.0625C38.2873 77.0625 38.2873 77.0625 38.2873 77.0625C38.2873 77.0625 38.2873 77.0625 38.2873 77.0625C38.2873 77.0625 38.2873 77.0625 38.2873 77.0625C38.2873 77.0625 38.2873 77.0625 38.2873 77.0625C38.2873 77.0625 38.2873 77.0625 38.2873 77.0625C38.2873 77.0625 38.2873 77.0625 38.2873 77.0625C38.2873 77.0625 38.2873 77.0625 38.2873 77.0625C38.2873 77.0625 38.2873 77.0625 38.2873 77.0625C38.2873 77.0625 38.2873 77.0625 38.2873 77.0625C38.2873 77.0625 38.2873 77.0625 38.2873 77.0625C38.2873 77.0625 38.2873 77.0625 38.2873 77.0625C38.2873 77.0625 38.2873 77.0625 38.2873 77.0625C38.2873 77.0625 38.2873 77.0625 38.2873 77.0625C38.2873 77.0625 38.2873 77.0625 38.2873 77.0625C38.2873 77.0625 38.2873 77.0625 38.2873 77.0625C38.2873 77.0625 38.2873 77.0625 38.2873 77.0625C38.2873 77.0625 38.2873 77.0625 38.2873 77.0625C38.2873 77.0625 38.2873 77.0625 38.2873 77.0625C38.2873 77.0625 38.2873 77.0625 38.2873 77.0625C38.2873 77.0625 38.2873 77.0625 38.2873 77.0625C38.2873 77.0625 38.2873 77.0625 38.2873 77.0625C38.2873 77.0625 38.2873 77.0625 38.2873 77.0625C38.2873 77.0625 38.2873 77.0625 38.2873 77.0625C38.2873 77.0625 38.2873 77.0625 38.2873 77.0625C38.2873 77.0625 38.2873 77.0625 38.2873 77.0625C38.2873 77.0625 38.2873 77.0625 38.2873 77.0625C38.2873 77.0625 38.2873 77.0625 38.2873 77.0625C38.2873 77.0625 38.2873 77.0625 38.2873 77.0625C38.2873 77.0625 38.2873 77.0625 38.2873 77.0625C38.2873 77.0625 38.2873 77.0625 38.2873 77.0625C38.2873 77.0625 38.2873 77.0625 38.2873 77.0625C38.2873 77.0625 38.2873 77.0625 38.2873 77.0625C38.2873 77.0625 38.2873 77.0625 38.2873 77.0625C38.2873 77.0625 38.2873 77.0625 38.2873 77.0625C38.2873 77.0625 38.2873 77.0625 38.2873 77.0625C38.2873 77.0625 38.2873 77.0625 38.2873 77.0625C38.2873 77.0625 38.2873 77.0625 38.2873 77.0625C38.2873 77.0625 38.2873 77.0625 38.2873 77.0625C38.2873 77.0625 38.2873 77.0625 38.2873 77.0625C38.2873 77.0625 38.2873 77.0625 38.2873 77.0625C38.2873 77.0625 38.2873 77.0625 38.2873 77.0625C38.2873 77.0625 38.2873 77.0625 38.2873 77.0625C38.2873 77.0625 38.2873 77.0625 38.2873 77.0625C38.2872 77.0625 38.2872 77.0625 38.2872 77.0625C38.2872 77.0625 38.2872 77.0625 38.2872 77.0625C38.2872 77.0625 38.2872 77.0625 38.2872 77.0625C38.2872 77.0625 38.2872 77.0625 38.2872 77.0625C38.2872 77.0625 38.2872 77.0625 38.2872 77.0625C38.2872 77.0625 38.2872 77.0625 38.2872 77.0625C38.2872 77.0625 38.2872 77.0625 38.2872 77.0625C38.2872 77.0625 38.2872 77.0625 38.2872 77.0625C38.2872 77.0625 38.2872 77.0625 38.2872 77.0625C38.2872 77.0625 38.2872 77.0625 38.2872 77.0625C38.2872 77.0625 38.2872 77.0625 38.2872 77.0625C38.2872 77.0625 38.2872 77.0625 38.2872 77.0625C38.2872 77.0625 38.2872 77.0625 38.2872 77.0625C38.2872 77.0625 38.2872 77.0625 38.2872 77.0625C38.2872 77.0625 38.2872 77.0625 38.2872 77.0625C38.2872 77.0625 38.2872 77.0625 38.2872 77.0625C38.2872 77.0625 38.2872 77.0625 38.2872 77.0625C38.2872 77.0625 38.2872 77.0625 38.2872 77.0625C38.2872 77.0625 38.2872 77.0625 38.2872 77.0625C38.2872 77.0625 38.2872 77.0625 38.2872 77.0625C38.2872 77.0625 38.2872 77.0625 38.2872 77.0625C38.2872 77.0625 38.2872 77.0625 38.2872 77.0625C38.2872 77.0625 38.2872 77.0625 38.2872 77.0625C38.2872 77.0625 38.2872 77.0625 38.2872 77.0625C38.2872 77.0625 38.2872 77.0625 38.2872 77.0625C38.2872 77.0625 38.2872 77.0625 38.2872 77.0625C38.2872 77.0625 38.2872 77.0625 38.2872 77.0625C38.2872 77.0625 38.2872 77.0625 38.2872 77.0625C38.2872 77.0625 38.2872 77.0625 38.2872 77.0625C38.2872 77.0625 38.2872 77.0625 38.2872 77.0625C38.2872 77.0625 38.2872 77.0625 38.2872 77.0625C38.2872 77.0625 38.2872 77.0625 38.2872 77.0625C38.2872 77.0625 38.2872 77.0625 38.2872 77.0625C38.2872 77.0625 38.2872 77.0625 38.2872 77.0625C38.2872 77.0625 38.2872 77.0625 38.2872 77.0625C38.2872 77.0625 38.2872 77.0625 38.2872 77.0625C38.2872 77.0625 38.2872 77.0625 38.2872 77.0625C38.2872 77.0625 38.2872 77.0625 38.2872 77.0625C38.2872 77.0625 38.2872 77.0625 38.2872 77.0625C38.2872 77.0625 38.2872 77.0625 38.2872 77.0625C38.2872 77.0625 38.2872 77.0625 38.2872 77.0625C38.2872 77.0625 38.2872 77.0625 38.2872 77.0625C38.2872 77.0625 38.2872 77.0625 38.2872 77.0625C38.2872 77.0625 38.2872 77.0625 38.2872 77.0625C38.2872 77.0625 38.2872 77.0625 38.2872 77.0625C38.2872 77.0625 38.2872 77.0625 38.2872 77.0625C38.2872 77.0625 38.2872 77.0625 38.2872 77.0625C38.2872 77.0625 38.2872 77.0625 38.2872 77.0625C38.2872 77.0625 38.2872 77.0625 38.2872 77.0625C38.2872 77.0625 38.2872 77.0625 38.2872 77.0625C38.2872 77.0625 38.2872 77.0625 38.2872 77.0625C38.2872 77.0625 38.2872 77.0625 38.2872 77.0625C38.2871 77.0625 38.2871 77.0625 38.2871 77.0625C38.2871 77.0625 38.2871 77.0625 38.2871 77.0625C38.2871 77.0625 38.2871 77.0625 38.2871 77.0625C38.2871 77.0625 38.2871 77.0625 38.2871 77.0625C38.2871 77.0625 38.2871 77.0625 38.2871 77.0625C38.2871 77.0625 38.2871 77.0625 38.2871 77.0625C38.2871 77.0625 38.2871 77.0625 38.2871 77.0625C38.2871 77.0625 38.2871 77.0625 38.2871 77.0625C38.2871 77.0625 38.2871 77.0625 38.2871 77.0625C38.2871 77.0625 38.2871 77.0625 38.2871 77.0625C38.2871 77.0625 38.2871 77.0625 38.2871 77.0625C38.2871 77.0625 38.2871 77.0625 38.2871 77.0625C38.2871 77.0625 38.2871 77.0625 38.2871 77.0625C38.2871 77.0625 38.2871 77.0625 38.2871 77.0625C38.2871 77.0625 38.2871 77.0625 38.2871 77.0625C38.2871 77.0625 38.2871 77.0625 38.2871 77.0625C38.2871 77.0625 38.2871 77.0625 38.2871 77.0625C38.2871 77.0625 38.2871 77.0625 38.2871 77.0625C38.2871 77.0625 38.2871 77.0625 38.2871 77.0625C38.2871 77.0625 38.2871 77.0625 38.2871 77.0625C38.2871 77.0625 38.2871 77.0625 38.2871 77.0625C38.2871 77.0625 38.2871 77.0625 38.2871 77.0625C38.2871 77.0625 38.2871 77.0625 38.2871 77.0625C38.2871 77.0625 38.2871 77.0625 38.2871 77.0625C38.2871 77.0625 38.2871 77.0625 38.2871 77.0625C38.2871 77.0625 38.2871 77.0625 38.2871 77.0625C38.2871 77.0625 38.2871 77.0625 38.2871 77.0625C38.2871 77.0625 38.2871 77.0625 38.2871 77.0625C38.2871 77.0625 38.2871 77.0625 38.2871 77.0625C38.2871 77.0625 38.2871 77.0625 38.2871 77.0625C38.2871 77.0625 38.2871 77.0625 38.2871 77.0625C38.2871 77.0625 38.2871 77.0625 38.2871 77.0625C38.2871 77.0625 38.2871 77.0625 38.2871 77.0625C38.2871 77.0625 38.2871 77.0625 38.2871 77.0625C38.2871 77.0625 38.2871 77.0625 38.2871 77.0625C38.2871 77.0625 38.2871 77.0625 38.2871 77.0625C38.2871 77.0625 38.2871 77.0625 38.2871 77.0625C38.2871 77.0625 38.2871 77.0625 38.2871 77.0625C38.2871 77.0625 38.2871 77.0625 38.2871 77.0625C38.2871 77.0625 38.2871 77.0625 38.2871 77.0625C38.2871 77.0625 38.2871 77.0625 38.2871 77.0625C38.2871 77.0625 38.2871 77.0625 38.2871 77.0625C38.2871 77.0625 38.2871 77.0625 38.2871 77.0625C38.2871 77.0625 38.2871 77.0625 38.2871 77.0625C38.2871 77.0625 38.2871 77.0625 38.2871 77.0625C38.2871 77.0625 38.2871 77.0625 38.2871 77.0625C38.2871 77.0625 38.2871 77.0625 38.2871 77.0625C38.2871 77.0625 38.2871 77.0625 38.2871 77.0625C38.2871 77.0625 38.2871 77.0625 38.2871 77.0625C38.2871 77.0625 38.2871 77.0625 38.2871 77.0625C38.2871 77.0625 38.2871 77.0625 38.2871 77.0625C38.2871 77.0625 38.2871 77.0625 38.2871 77.0625C38.2871 77.0625 38.287 77.0625 38.287 77.0625C38.287 77.0625 38.287 77.0625 38.287 77.0625C38.287 77.0625 38.287 77.0625 38.287 77.0625C38.287 77.0625 38.287 77.0625 38.287 77.0625C38.287 77.0625 38.287 77.0625 38.287 77.0625C38.287 77.0625 38.287 77.0625 38.287 77.0625C38.287 77.0625 38.287 77.0625 38.287 77.0625C38.287 77.0625 38.287 77.0625 38.287 77.0625C38.287 77.0625 38.287 77.0625 38.287 77.0625C38.287 77.0625 38.287 77.0625 38.287 77.0625C38.287 77.0625 38.287 77.0625 38.287 77.0625C38.287 77.0625 38.287 77.0625 38.287 77.0625C38.287 77.0625 38.287 77.0625 38.287 77.0625C38.287 77.0625 38.287 77.0625 38.287 77.0625C38.287 77.0625 38.287 77.0625 38.287 77.0625C38.287 77.0625 38.287 77.0625 38.287 77.0625C38.287 77.0625 38.287 77.0625 38.287 77.0625C38.287 77.0625 38.287 77.0625 38.287 77.0625C38.287 77.0625 38.287 77.0625 38.287 77.0625C38.287 77.0625 38.287 77.0625 38.287 77.0625C38.287 77.0625 38.287 77.0625 38.287 77.0625C38.287 77.0625 38.287 77.0625 38.287 77.0625C38.287 77.0625 38.287 77.0625 38.287 77.0625C38.287 77.0625 38.287 77.0625 38.287 77.0625C38.287 77.0625 38.287 77.0625 38.287 77.0625C38.287 77.0625 38.287 77.0625 38.287 77.0625C38.287 77.0625 38.287 77.0625 38.287 77.0625C38.287 77.0625 38.287 77.0625 38.287 77.0625C38.287 77.0625 38.287 77.0625 38.287 77.0625C38.287 77.0625 38.287 77.0625 38.287 77.0625C38.287 77.0625 38.287 77.0625 38.287 77.0625C38.287 77.0625 38.287 77.0625 38.287 77.0625C38.287 77.0625 38.287 77.0625 38.287 77.0625C38.287 77.0625 38.287 77.0625 38.287 77.0625C38.287 77.0625 38.287 77.0625 38.287 77.0625C38.287 77.0625 38.287 77.0625 38.287 77.0625C38.287 77.0625 38.287 77.0625 38.287 77.0625C38.287 77.0625 38.287 77.0625 38.287 77.0625C38.287 77.0625 38.287 77.0625 38.287 77.0625C38.287 77.0625 38.287 77.0625 38.287 77.0625C38.287 77.0625 38.287 77.0625 38.287 77.0625C38.287 77.0625 38.287 77.0625 38.287 77.0625C38.287 77.0625 38.287 77.0625 38.287 77.0625C38.287 77.0625 38.287 77.0625 38.287 77.0625C38.287 77.0625 38.287 77.0625 38.287 77.0625C38.287 77.0625 38.287 77.0625 38.287 77.0625C38.287 77.0625 38.287 77.0625 38.287 77.0625C38.287 77.0625 38.287 77.0625 38.287 77.0625C38.287 77.0625 38.287 77.0625 38.287 77.0625C38.287 77.0625 38.287 77.0625 38.287 77.0625C38.287 77.0625 38.287 77.0625 38.287 77.0625C38.287 77.0625 38.287 77.0625 38.287 77.0625C38.287 77.0625 38.287 77.0625 38.2869 77.0625C38.2869 77.0625 38.2869 77.0625 38.2869 77.0625C38.2869 77.0625 38.2869 77.0625 38.2869 77.0625C38.2869 77.0625 38.2869 77.0625 38.2869 77.0625C38.2869 77.0625 38.2869 77.0625 38.2869 77.0625C38.2869 77.0625 38.2869 77.0625 38.2869 77.0625C38.2869 77.0625 38.2869 77.0625 38.2869 77.0625C38.2869 77.0625 38.2869 77.0625 38.2869 77.0625C38.2869 77.0625 38.2869 77.0625 38.2869 77.0625C38.2869 77.0625 38.2869 77.0625 38.2869 77.0625C38.2869 77.0625 38.2869 77.0625 38.2869 77.0625C38.2869 77.0625 38.2869 77.0625 38.2869 77.0625C38.2869 77.0625 38.2869 77.0625 38.2869 77.0625C38.2869 77.0625 38.2869 77.0625 38.2869 77.0625C38.2869 77.0625 38.2869 77.0625 38.2869 77.0625C38.2869 77.0625 38.2869 77.0625 38.2869 77.0625C38.2869 77.0625 38.2869 77.0625 38.2869 77.0625C38.2869 77.0625 38.2869 77.0625 38.2869 77.0625C38.2869 77.0625 38.2869 77.0625 38.2869 77.0625C38.2869 77.0625 38.2869 77.0625 38.2869 77.0625C38.2869 77.0625 38.2869 77.0625 38.2869 77.0625C38.2869 77.0625 38.2869 77.0625 38.2869 77.0625C38.2869 77.0625 38.2869 77.0625 38.2869 77.0625C38.2869 77.0625 38.2869 77.0625 38.2869 77.0625C38.2869 77.0625 38.2869 77.0625 38.2869 77.0625C38.2869 77.0625 38.2869 77.0625 38.2869 77.0625C38.2869 77.0625 38.2869 77.0625 38.2869 77.0625C38.2869 77.0625 38.2869 77.0625 38.2869 77.0625C38.2869 77.0625 38.2869 77.0625 38.2869 77.0625C38.2869 77.0625 38.2869 77.0625 38.2869 77.0625C38.2869 77.0625 38.2869 77.0625 38.2869 77.0625C38.2869 77.0625 38.2869 77.0625 38.2869 77.0625C38.2869 77.0625 38.2869 77.0625 38.2869 77.0625C38.2869 77.0625 38.2869 77.0625 38.2869 77.0625C38.2869 77.0625 38.2869 77.0625 38.2869 77.0625C38.2869 77.0625 38.2869 77.0625 38.2869 77.0625C38.2869 77.0625 38.2869 77.0625 38.2869 77.0625C38.2869 77.0625 38.2869 77.0625 38.2869 77.0625C38.2869 77.0625 38.2869 77.0625 38.2869 77.0625C38.2869 77.0625 38.2869 77.0625 38.2869 77.0625C38.2869 77.0625 38.2869 77.0625 38.2869 77.0625C38.2869 77.0625 38.2869 77.0625 38.2869 77.0625C38.2869 77.0625 38.2869 77.0625 38.2869 77.0625C38.2869 77.0625 38.2869 77.0625 38.2869 77.0625C38.2869 77.0625 38.2869 77.0625 38.2869 77.0625V79.0625C38.2869 79.0625 38.2869 79.0625 38.2869 79.0625C38.2869 79.0625 38.2869 79.0625 38.2869 79.0625C38.2869 79.0625 38.2869 79.0625 38.2869 79.0625C38.2869 79.0625 38.2869 79.0625 38.2869 79.0625C38.2869 79.0625 38.2869 79.0625 38.2869 79.0625C38.2869 79.0625 38.2869 79.0625 38.2869 79.0625C38.2869 79.0625 38.2869 79.0625 38.2869 79.0625C38.2869 79.0625 38.2869 79.0625 38.2869 79.0625C38.2869 79.0625 38.2869 79.0625 38.2869 79.0625C38.2869 79.0625 38.2869 79.0625 38.2869 79.0625C38.2869 79.0625 38.2869 79.0625 38.2869 79.0625C38.2869 79.0625 38.2869 79.0625 38.2869 79.0625C38.2869 79.0625 38.2869 79.0625 38.2869 79.0625C38.2869 79.0625 38.2869 79.0625 38.2869 79.0625C38.2869 79.0625 38.2869 79.0625 38.2869 79.0625C38.2869 79.0625 38.2869 79.0625 38.2869 79.0625C38.2869 79.0625 38.2869 79.0625 38.2869 79.0625C38.2869 79.0625 38.2869 79.0625 38.2869 79.0625C38.2869 79.0625 38.2869 79.0625 38.2869 79.0625C38.2869 79.0625 38.2869 79.0625 38.2869 79.0625C38.2869 79.0625 38.2869 79.0625 38.2869 79.0625C38.2869 79.0625 38.2869 79.0625 38.2869 79.0625C38.2869 79.0625 38.2869 79.0625 38.2869 79.0625C38.2869 79.0625 38.2869 79.0625 38.2869 79.0625C38.2869 79.0625 38.2869 79.0625 38.2869 79.0625C38.2869 79.0625 38.2869 79.0625 38.2869 79.0625C38.2869 79.0625 38.2869 79.0625 38.2869 79.0625C38.2869 79.0625 38.2869 79.0625 38.2869 79.0625C38.2869 79.0625 38.2869 79.0625 38.2869 79.0625C38.2869 79.0625 38.2869 79.0625 38.2869 79.0625C38.2869 79.0625 38.2869 79.0625 38.2869 79.0625C38.2869 79.0625 38.2869 79.0625 38.2869 79.0625C38.2869 79.0625 38.2869 79.0625 38.2869 79.0625C38.2869 79.0625 38.2869 79.0625 38.2869 79.0625C38.2869 79.0625 38.2869 79.0625 38.2869 79.0625C38.2869 79.0625 38.2869 79.0625 38.2869 79.0625C38.2869 79.0625 38.2869 79.0625 38.2869 79.0625C38.2869 79.0625 38.2869 79.0625 38.2869 79.0625C38.2869 79.0625 38.2869 79.0625 38.2869 79.0625C38.2869 79.0625 38.2869 79.0625 38.2869 79.0625C38.2869 79.0625 38.2869 79.0625 38.2869 79.0625C38.2869 79.0625 38.2869 79.0625 38.2869 79.0625C38.2869 79.0625 38.2869 79.0625 38.2869 79.0625C38.2869 79.0625 38.2869 79.0625 38.2869 79.0625C38.287 79.0625 38.287 79.0625 38.287 79.0625C38.287 79.0625 38.287 79.0625 38.287 79.0625C38.287 79.0625 38.287 79.0625 38.287 79.0625C38.287 79.0625 38.287 79.0625 38.287 79.0625C38.287 79.0625 38.287 79.0625 38.287 79.0625C38.287 79.0625 38.287 79.0625 38.287 79.0625C38.287 79.0625 38.287 79.0625 38.287 79.0625C38.287 79.0625 38.287 79.0625 38.287 79.0625C38.287 79.0625 38.287 79.0625 38.287 79.0625C38.287 79.0625 38.287 79.0625 38.287 79.0625C38.287 79.0625 38.287 79.0625 38.287 79.0625C38.287 79.0625 38.287 79.0625 38.287 79.0625C38.287 79.0625 38.287 79.0625 38.287 79.0625C38.287 79.0625 38.287 79.0625 38.287 79.0625C38.287 79.0625 38.287 79.0625 38.287 79.0625C38.287 79.0625 38.287 79.0625 38.287 79.0625C38.287 79.0625 38.287 79.0625 38.287 79.0625C38.287 79.0625 38.287 79.0625 38.287 79.0625C38.287 79.0625 38.287 79.0625 38.287 79.0625C38.287 79.0625 38.287 79.0625 38.287 79.0625C38.287 79.0625 38.287 79.0625 38.287 79.0625C38.287 79.0625 38.287 79.0625 38.287 79.0625C38.287 79.0625 38.287 79.0625 38.287 79.0625C38.287 79.0625 38.287 79.0625 38.287 79.0625C38.287 79.0625 38.287 79.0625 38.287 79.0625C38.287 79.0625 38.287 79.0625 38.287 79.0625C38.287 79.0625 38.287 79.0625 38.287 79.0625C38.287 79.0625 38.287 79.0625 38.287 79.0625C38.287 79.0625 38.287 79.0625 38.287 79.0625C38.287 79.0625 38.287 79.0625 38.287 79.0625C38.287 79.0625 38.287 79.0625 38.287 79.0625C38.287 79.0625 38.287 79.0625 38.287 79.0625C38.287 79.0625 38.287 79.0625 38.287 79.0625C38.287 79.0625 38.287 79.0625 38.287 79.0625C38.287 79.0625 38.287 79.0625 38.287 79.0625C38.287 79.0625 38.287 79.0625 38.287 79.0625C38.287 79.0625 38.287 79.0625 38.287 79.0625C38.287 79.0625 38.287 79.0625 38.287 79.0625C38.287 79.0625 38.287 79.0625 38.287 79.0625C38.287 79.0625 38.287 79.0625 38.287 79.0625C38.287 79.0625 38.287 79.0625 38.287 79.0625C38.287 79.0625 38.287 79.0625 38.287 79.0625C38.287 79.0625 38.287 79.0625 38.287 79.0625C38.287 79.0625 38.287 79.0625 38.287 79.0625C38.287 79.0625 38.287 79.0625 38.287 79.0625C38.287 79.0625 38.287 79.0625 38.287 79.0625C38.287 79.0625 38.287 79.0625 38.287 79.0625C38.287 79.0625 38.287 79.0625 38.287 79.0625C38.287 79.0625 38.287 79.0625 38.287 79.0625C38.287 79.0625 38.287 79.0625 38.287 79.0625C38.287 79.0625 38.287 79.0625 38.287 79.0625C38.287 79.0625 38.287 79.0625 38.287 79.0625C38.287 79.0625 38.2871 79.0625 38.2871 79.0625C38.2871 79.0625 38.2871 79.0625 38.2871 79.0625C38.2871 79.0625 38.2871 79.0625 38.2871 79.0625C38.2871 79.0625 38.2871 79.0625 38.2871 79.0625C38.2871 79.0625 38.2871 79.0625 38.2871 79.0625C38.2871 79.0625 38.2871 79.0625 38.2871 79.0625C38.2871 79.0625 38.2871 79.0625 38.2871 79.0625C38.2871 79.0625 38.2871 79.0625 38.2871 79.0625C38.2871 79.0625 38.2871 79.0625 38.2871 79.0625C38.2871 79.0625 38.2871 79.0625 38.2871 79.0625C38.2871 79.0625 38.2871 79.0625 38.2871 79.0625C38.2871 79.0625 38.2871 79.0625 38.2871 79.0625C38.2871 79.0625 38.2871 79.0625 38.2871 79.0625C38.2871 79.0625 38.2871 79.0625 38.2871 79.0625C38.2871 79.0625 38.2871 79.0625 38.2871 79.0625C38.2871 79.0625 38.2871 79.0625 38.2871 79.0625C38.2871 79.0625 38.2871 79.0625 38.2871 79.0625C38.2871 79.0625 38.2871 79.0625 38.2871 79.0625C38.2871 79.0625 38.2871 79.0625 38.2871 79.0625C38.2871 79.0625 38.2871 79.0625 38.2871 79.0625C38.2871 79.0625 38.2871 79.0625 38.2871 79.0625C38.2871 79.0625 38.2871 79.0625 38.2871 79.0625C38.2871 79.0625 38.2871 79.0625 38.2871 79.0625C38.2871 79.0625 38.2871 79.0625 38.2871 79.0625C38.2871 79.0625 38.2871 79.0625 38.2871 79.0625C38.2871 79.0625 38.2871 79.0625 38.2871 79.0625C38.2871 79.0625 38.2871 79.0625 38.2871 79.0625C38.2871 79.0625 38.2871 79.0625 38.2871 79.0625C38.2871 79.0625 38.2871 79.0625 38.2871 79.0625C38.2871 79.0625 38.2871 79.0625 38.2871 79.0625C38.2871 79.0625 38.2871 79.0625 38.2871 79.0625C38.2871 79.0625 38.2871 79.0625 38.2871 79.0625C38.2871 79.0625 38.2871 79.0625 38.2871 79.0625C38.2871 79.0625 38.2871 79.0625 38.2871 79.0625C38.2871 79.0625 38.2871 79.0625 38.2871 79.0625C38.2871 79.0625 38.2871 79.0625 38.2871 79.0625C38.2871 79.0625 38.2871 79.0625 38.2871 79.0625C38.2871 79.0625 38.2871 79.0625 38.2871 79.0625C38.2871 79.0625 38.2871 79.0625 38.2871 79.0625C38.2871 79.0625 38.2871 79.0625 38.2871 79.0625C38.2871 79.0625 38.2871 79.0625 38.2871 79.0625C38.2871 79.0625 38.2871 79.0625 38.2871 79.0625C38.2871 79.0625 38.2871 79.0625 38.2871 79.0625C38.2871 79.0625 38.2871 79.0625 38.2871 79.0625C38.2871 79.0625 38.2871 79.0625 38.2871 79.0625C38.2871 79.0625 38.2871 79.0625 38.2871 79.0625C38.2871 79.0625 38.2871 79.0625 38.2871 79.0625C38.2871 79.0625 38.2871 79.0625 38.2871 79.0625C38.2871 79.0625 38.2871 79.0625 38.2871 79.0625C38.2871 79.0625 38.2871 79.0625 38.2871 79.0625C38.2871 79.0625 38.2871 79.0625 38.2871 79.0625C38.2871 79.0625 38.2871 79.0625 38.2871 79.0625C38.2871 79.0625 38.2871 79.0625 38.2872 79.0625C38.2872 79.0625 38.2872 79.0625 38.2872 79.0625C38.2872 79.0625 38.2872 79.0625 38.2872 79.0625C38.2872 79.0625 38.2872 79.0625 38.2872 79.0625C38.2872 79.0625 38.2872 79.0625 38.2872 79.0625C38.2872 79.0625 38.2872 79.0625 38.2872 79.0625C38.2872 79.0625 38.2872 79.0625 38.2872 79.0625C38.2872 79.0625 38.2872 79.0625 38.2872 79.0625C38.2872 79.0625 38.2872 79.0625 38.2872 79.0625C38.2872 79.0625 38.2872 79.0625 38.2872 79.0625C38.2872 79.0625 38.2872 79.0625 38.2872 79.0625C38.2872 79.0625 38.2872 79.0625 38.2872 79.0625C38.2872 79.0625 38.2872 79.0625 38.2872 79.0625C38.2872 79.0625 38.2872 79.0625 38.2872 79.0625C38.2872 79.0625 38.2872 79.0625 38.2872 79.0625C38.2872 79.0625 38.2872 79.0625 38.2872 79.0625C38.2872 79.0625 38.2872 79.0625 38.2872 79.0625C38.2872 79.0625 38.2872 79.0625 38.2872 79.0625C38.2872 79.0625 38.2872 79.0625 38.2872 79.0625C38.2872 79.0625 38.2872 79.0625 38.2872 79.0625C38.2872 79.0625 38.2872 79.0625 38.2872 79.0625C38.2872 79.0625 38.2872 79.0625 38.2872 79.0625C38.2872 79.0625 38.2872 79.0625 38.2872 79.0625C38.2872 79.0625 38.2872 79.0625 38.2872 79.0625C38.2872 79.0625 38.2872 79.0625 38.2872 79.0625C38.2872 79.0625 38.2872 79.0625 38.2872 79.0625C38.2872 79.0625 38.2872 79.0625 38.2872 79.0625C38.2872 79.0625 38.2872 79.0625 38.2872 79.0625C38.2872 79.0625 38.2872 79.0625 38.2872 79.0625C38.2872 79.0625 38.2872 79.0625 38.2872 79.0625C38.2872 79.0625 38.2872 79.0625 38.2872 79.0625C38.2872 79.0625 38.2872 79.0625 38.2872 79.0625C38.2872 79.0625 38.2872 79.0625 38.2872 79.0625C38.2872 79.0625 38.2872 79.0625 38.2872 79.0625C38.2872 79.0625 38.2872 79.0625 38.2872 79.0625C38.2872 79.0625 38.2872 79.0625 38.2872 79.0625C38.2872 79.0625 38.2872 79.0625 38.2872 79.0625C38.2872 79.0625 38.2872 79.0625 38.2872 79.0625C38.2872 79.0625 38.2872 79.0625 38.2872 79.0625C38.2872 79.0625 38.2872 79.0625 38.2872 79.0625C38.2872 79.0625 38.2872 79.0625 38.2872 79.0625C38.2872 79.0625 38.2872 79.0625 38.2872 79.0625C38.2872 79.0625 38.2872 79.0625 38.2872 79.0625C38.2872 79.0625 38.2872 79.0625 38.2872 79.0625C38.2872 79.0625 38.2872 79.0625 38.2872 79.0625C38.2872 79.0625 38.2872 79.0625 38.2872 79.0625C38.2872 79.0625 38.2872 79.0625 38.2872 79.0625C38.2872 79.0625 38.2872 79.0625 38.2872 79.0625C38.2872 79.0625 38.2872 79.0625 38.2872 79.0625C38.2872 79.0625 38.2872 79.0625 38.2872 79.0625C38.2872 79.0625 38.2872 79.0625 38.2872 79.0625C38.2872 79.0625 38.2872 79.0625 38.2872 79.0625C38.2872 79.0625 38.2872 79.0625 38.2873 79.0625C38.2873 79.0625 38.2873 79.0625 38.2873 79.0625C38.2873 79.0625 38.2873 79.0625 38.2873 79.0625C38.2873 79.0625 38.2873 79.0625 38.2873 79.0625C38.2873 79.0625 38.2873 79.0625 38.2873 79.0625C38.2873 79.0625 38.2873 79.0625 38.2873 79.0625C38.2873 79.0625 38.2873 79.0625 38.2873 79.0625C38.2873 79.0625 38.2873 79.0625 38.2873 79.0625C38.2873 79.0625 38.2873 79.0625 38.2873 79.0625C38.2873 79.0625 38.2873 79.0625 38.2873 79.0625C38.2873 79.0625 38.2873 79.0625 38.2873 79.0625C38.2873 79.0625 38.2873 79.0625 38.2873 79.0625C38.2873 79.0625 38.2873 79.0625 38.2873 79.0625C38.2873 79.0625 38.2873 79.0625 38.2873 79.0625C38.2873 79.0625 38.2873 79.0625 38.2873 79.0625C38.2873 79.0625 38.2873 79.0625 38.2873 79.0625C38.2873 79.0625 38.2873 79.0625 38.2873 79.0625C38.2873 79.0625 38.2873 79.0625 38.2873 79.0625C38.2873 79.0625 38.2873 79.0625 38.2873 79.0625C38.2873 79.0625 38.2873 79.0625 38.2873 79.0625C38.2873 79.0625 38.2873 79.0625 38.2873 79.0625C38.2873 79.0625 38.2873 79.0625 38.2873 79.0625C38.2873 79.0625 38.2873 79.0625 38.2873 79.0625C38.2873 79.0625 38.2873 79.0625 38.2873 79.0625C38.2873 79.0625 38.2873 79.0625 38.2873 79.0625C38.2873 79.0625 38.2873 79.0625 38.2873 79.0625C38.2873 79.0625 38.2873 79.0625 38.2873 79.0625C38.2873 79.0625 38.2873 79.0625 38.2873 79.0625C38.2873 79.0625 38.2873 79.0625 38.2873 79.0625C38.2873 79.0625 38.2873 79.0625 38.2873 79.0625C38.2873 79.0625 38.2873 79.0625 38.2873 79.0625C38.2873 79.0625 38.2873 79.0625 38.2873 79.0625C38.2873 79.0625 38.2873 79.0625 38.2873 79.0625C38.2873 79.0625 38.2873 79.0625 38.2873 79.0625C38.2873 79.0625 38.2873 79.0625 38.2873 79.0625C38.2873 79.0625 38.2873 79.0625 38.2873 79.0625C38.2873 79.0625 38.2873 79.0625 38.2873 79.0625C38.2873 79.0625 38.2873 79.0625 38.2873 79.0625C38.2873 79.0625 38.2873 79.0625 38.2873 79.0625C38.2873 79.0625 38.2873 79.0625 38.2873 79.0625C38.2873 79.0625 38.2873 79.0625 38.2873 79.0625C38.2873 79.0625 38.2873 79.0625 38.2873 79.0625C38.2873 79.0625 38.2873 79.0625 38.2873 79.0625C38.2873 79.0625 38.2873 79.0625 38.2873 79.0625C38.2873 79.0625 38.2873 79.0625 38.2873 79.0625C38.2873 79.0625 38.2873 79.0625 38.2873 79.0625C38.2873 79.0625 38.2873 79.0625 38.2873 79.0625C38.2873 79.0625 38.2873 79.0625 38.2873 79.0625C38.2873 79.0625 38.2873 79.0625 38.2873 79.0625C38.2873 79.0625 38.2873 79.0625 38.2873 79.0625C38.2873 79.0625 38.2873 79.0625 38.2873 79.0625C38.2873 79.0625 38.2873 79.0625 38.2873 79.0625C38.2873 79.0625 38.2873 79.0625 38.2873 79.0625C38.2874 79.0625 38.2874 79.0625 38.2874 79.0625C38.2874 79.0625 38.2874 79.0625 38.2874 79.0625C38.2874 79.0625 38.2874 79.0625 38.2874 79.0625C38.2874 79.0625 38.2874 79.0625 38.2874 79.0625C38.2874 79.0625 38.2874 79.0625 38.2874 79.0625C38.2874 79.0625 38.2874 79.0625 38.2874 79.0625C38.2874 79.0625 38.2874 79.0625 38.2874 79.0625C38.2874 79.0625 38.2874 79.0625 38.2874 79.0625C38.2874 79.0625 38.2874 79.0625 38.2874 79.0625C38.2874 79.0625 38.2874 79.0625 38.2874 79.0625C38.2874 79.0625 38.2874 79.0625 38.2874 79.0625C38.2874 79.0625 38.2874 79.0625 38.2874 79.0625C38.2874 79.0625 38.2874 79.0625 38.2874 79.0625C38.2874 79.0625 38.2874 79.0625 38.2874 79.0625C38.2874 79.0625 38.2874 79.0625 38.2874 79.0625C38.2874 79.0625 38.2874 79.0625 38.2874 79.0625C38.2874 79.0625 38.2874 79.0625 38.2874 79.0625C38.2874 79.0625 38.2874 79.0625 38.2874 79.0625C38.2874 79.0625 38.2874 79.0625 38.2874 79.0625C38.2874 79.0625 38.2874 79.0625 38.2874 79.0625C38.2874 79.0625 38.2874 79.0625 38.2874 79.0625C38.2874 79.0625 38.2874 79.0625 38.2874 79.0625C38.2874 79.0625 38.2874 79.0625 38.2874 79.0625C38.2874 79.0625 38.2874 79.0625 38.2874 79.0625C38.2874 79.0625 38.2874 79.0625 38.2874 79.0625C38.2874 79.0625 38.2874 79.0625 38.2874 79.0625C38.2874 79.0625 38.2874 79.0625 38.2874 79.0625C38.2874 79.0625 38.2874 79.0625 38.2874 79.0625C38.2874 79.0625 38.2874 79.0625 38.2874 79.0625C38.2874 79.0625 38.2874 79.0625 38.2874 79.0625C38.2874 79.0625 38.2874 79.0625 38.2874 79.0625C38.2874 79.0625 38.2874 79.0625 38.2874 79.0625C38.2874 79.0625 38.2874 79.0625 38.2874 79.0625C38.2874 79.0625 38.2874 79.0625 38.2874 79.0625C38.2874 79.0625 38.2874 79.0625 38.2874 79.0625C38.2874 79.0625 38.2874 79.0625 38.2874 79.0625C38.2874 79.0625 38.2874 79.0625 38.2874 79.0625C38.2874 79.0625 38.2874 79.0625 38.2874 79.0625C38.2874 79.0625 38.2874 79.0625 38.2874 79.0625C38.2874 79.0625 38.2874 79.0625 38.2874 79.0625C38.2874 79.0625 38.2874 79.0625 38.2874 79.0625C38.2874 79.0625 38.2874 79.0625 38.2874 79.0625C38.2874 79.0625 38.2874 79.0625 38.2874 79.0625C38.2874 79.0625 38.2874 79.0625 38.2874 79.0625C38.2874 79.0625 38.2874 79.0625 38.2874 79.0625C38.2874 79.0625 38.2874 79.0625 38.2874 79.0625C38.2874 79.0625 38.2874 79.0625 38.2874 79.0625C38.2874 79.0625 38.2874 79.0625 38.2874 79.0625C38.2874 79.0625 38.2874 79.0625 38.2874 79.0625C38.2874 79.0625 38.2874 79.0625 38.2874 79.0625C38.2874 79.0625 38.2874 79.0625 38.2874 79.0625C38.2874 79.0625 38.2874 79.0625 38.2874 79.0625C38.2874 79.0625 38.2875 79.0625 38.2875 79.0625C38.2875 79.0625 38.2875 79.0625 38.2875 79.0625C38.2875 79.0625 38.2875 79.0625 38.2875 79.0625C38.2875 79.0625 38.2875 79.0625 38.2875 79.0625C38.2875 79.0625 38.2875 79.0625 38.2875 79.0625C38.2875 79.0625 38.2875 79.0625 38.2875 79.0625C38.2875 79.0625 38.2875 79.0625 38.2875 79.0625C38.2875 79.0625 38.2875 79.0625 38.2875 79.0625C38.2875 79.0625 38.2875 79.0625 38.2875 79.0625C38.2875 79.0625 38.2875 79.0625 38.2875 79.0625C38.2875 79.0625 38.2875 79.0625 38.2875 79.0625C38.2875 79.0625 38.2875 79.0625 38.2875 79.0625C38.2875 79.0625 38.2875 79.0625 38.2875 79.0625C38.2875 79.0625 38.2875 79.0625 38.2875 79.0625C38.2875 79.0625 38.2875 79.0625 38.2875 79.0625C38.2875 79.0625 38.2875 79.0625 38.2875 79.0625C38.2875 79.0625 38.2875 79.0625 38.2875 79.0625C38.2875 79.0625 38.2875 79.0625 38.2875 79.0625C38.2875 79.0625 38.2875 79.0625 38.2875 79.0625C38.2875 79.0625 38.2875 79.0625 38.2875 79.0625C38.2875 79.0625 38.2875 79.0625 38.2875 79.0625C38.2875 79.0625 38.2875 79.0625 38.2875 79.0625C38.2875 79.0625 38.2875 79.0625 38.2875 79.0625C38.2875 79.0625 38.2875 79.0625 38.2875 79.0625C38.2875 79.0625 38.2875 79.0625 38.2875 79.0625C38.2875 79.0625 38.2875 79.0625 38.2875 79.0625C38.2875 79.0625 38.2875 79.0625 38.2875 79.0625C38.2875 79.0625 38.2875 79.0625 38.2875 79.0625C38.2875 79.0625 38.2875 79.0625 38.2875 79.0625C38.2875 79.0625 38.2875 79.0625 38.2875 79.0625C38.2875 79.0625 38.2875 79.0625 38.2875 79.0625C38.2875 79.0625 38.2875 79.0625 38.2875 79.0625C38.2875 79.0625 38.2875 79.0625 38.2875 79.0625C38.2875 79.0625 38.2875 79.0625 38.2875 79.0625C38.2875 79.0625 38.2875 79.0625 38.2875 79.0625C38.2875 79.0625 38.2875 79.0625 38.2875 79.0625C38.2875 79.0625 38.2875 79.0625 38.2875 79.0625C38.2875 79.0625 38.2875 79.0625 38.2875 79.0625C38.2875 79.0625 38.2875 79.0625 38.2875 79.0625C38.2875 79.0625 38.2875 79.0625 38.2875 79.0625C38.2875 79.0625 38.2875 79.0625 38.2875 79.0625C38.2875 79.0625 38.2875 79.0625 38.2875 79.0625C38.2875 79.0625 38.2875 79.0625 38.2875 79.0625C38.2875 79.0625 38.2875 79.0625 38.2875 79.0625C38.2875 79.0625 38.2875 79.0625 38.2875 79.0625C38.2875 79.0625 38.2875 79.0625 38.2875 79.0625C38.2875 79.0625 38.2875 79.0625 38.2875 79.0625C38.2875 79.0625 38.2875 79.0625 38.2875 79.0625C38.2875 79.0625 38.2875 79.0625 38.2875 79.0625C38.2875 79.0625 38.2875 79.0625 38.2875 79.0625C38.2875 79.0625 38.2875 79.0625 38.2875 79.0625C38.2875 79.0625 38.2875 79.0625 38.2875 79.0625C38.2875 79.0625 38.2876 79.0625 38.2876 79.0625C38.2876 79.0625 38.2876 79.0625 38.2876 79.0625C38.2876 79.0625 38.2876 79.0625 38.2876 79.0625C38.2876 79.0625 38.2876 79.0625 38.2876 79.0625C38.2876 79.0625 38.2876 79.0625 38.2876 79.0625C38.2876 79.0625 38.2876 79.0625 38.2876 79.0625C38.2876 79.0625 38.2876 79.0625 38.2876 79.0625C38.2876 79.0625 38.2876 79.0625 38.2876 79.0625C38.2876 79.0625 38.2876 79.0625 38.2876 79.0625C38.2876 79.0625 38.2876 79.0625 38.2876 79.0625C38.2876 79.0625 38.2876 79.0625 38.2876 79.0625C38.2876 79.0625 38.2876 79.0625 38.2876 79.0625C38.2876 79.0625 38.2876 79.0625 38.2876 79.0625C38.2876 79.0625 38.2876 79.0625 38.2876 79.0625C38.2876 79.0625 38.2876 79.0625 38.2876 79.0625C38.2876 79.0625 38.2876 79.0625 38.2876 79.0625C38.2876 79.0625 38.2876 79.0625 38.2876 79.0625C38.2876 79.0625 38.2876 79.0625 38.2876 79.0625C38.2876 79.0625 38.2876 79.0625 38.2876 79.0625C38.2876 79.0625 38.2876 79.0625 38.2876 79.0625C38.2876 79.0625 38.2876 79.0625 38.2876 79.0625C38.2876 79.0625 38.2876 79.0625 38.2876 79.0625C38.2876 79.0625 38.2876 79.0625 38.2876 79.0625C38.2876 79.0625 38.2876 79.0625 38.2876 79.0625C38.2876 79.0625 38.2876 79.0625 38.2876 79.0625C38.2876 79.0625 38.2876 79.0625 38.2876 79.0625C38.2876 79.0625 38.2876 79.0625 38.2876 79.0625C38.2876 79.0625 38.2876 79.0625 38.2876 79.0625C38.2876 79.0625 38.2876 79.0625 38.2876 79.0625C38.2876 79.0625 38.2876 79.0625 38.2876 79.0625C38.2876 79.0625 38.2876 79.0625 38.2876 79.0625C38.2876 79.0625 38.2876 79.0625 38.2876 79.0625C38.2876 79.0625 38.2876 79.0625 38.2876 79.0625C38.2876 79.0625 38.2876 79.0625 38.2876 79.0625C38.2876 79.0625 38.2876 79.0625 38.2876 79.0625C38.2876 79.0625 38.2876 79.0625 38.2876 79.0625C38.2876 79.0625 38.2876 79.0625 38.2876 79.0625C38.2876 79.0625 38.2876 79.0625 38.2876 79.0625C38.2876 79.0625 38.2876 79.0625 38.2876 79.0625C38.2876 79.0625 38.2876 79.0625 38.2876 79.0625C38.2876 79.0625 38.2876 79.0625 38.2876 79.0625C38.2876 79.0625 38.2876 79.0625 38.2876 79.0625C38.2876 79.0625 38.2876 79.0625 38.2876 79.0625C38.2876 79.0625 38.2876 79.0625 38.2876 79.0625C38.2876 79.0625 38.2876 79.0625 38.2876 79.0625C38.2876 79.0625 38.2876 79.0625 38.2876 79.0625C38.2876 79.0625 38.2876 79.0625 38.2876 79.0625C38.2876 79.0625 38.2876 79.0625 38.2876 79.0625C38.2876 79.0625 38.2876 79.0625 38.2876 79.0625C38.2876 79.0625 38.2876 79.0625 38.2876 79.0625C38.2876 79.0625 38.2876 79.0625 38.2876 79.0625C38.2876 79.0625 38.2876 79.0625 38.2876 79.0625C38.2876 79.0625 38.2876 79.0625 38.2877 79.0625C38.2877 79.0625 38.2877 79.0625 38.2877 79.0625C38.2877 79.0625 38.2877 79.0625 38.2877 79.0625C38.2877 79.0625 38.2877 79.0625 38.2877 79.0625C38.2877 79.0625 38.2877 79.0625 38.2877 79.0625C38.2877 79.0625 38.2877 79.0625 38.2877 79.0625C38.2877 79.0625 38.2877 79.0625 38.2877 79.0625C38.2877 79.0625 38.2877 79.0625 38.2877 79.0625C38.2877 79.0625 38.2877 79.0625 38.2877 79.0625C38.2877 79.0625 38.2877 79.0625 38.2877 79.0625C38.2877 79.0625 38.2877 79.0625 38.2877 79.0625C38.2877 79.0625 38.2877 79.0625 38.2877 79.0625C38.2877 79.0625 38.2877 79.0625 38.2877 79.0625C38.2877 79.0625 38.2877 79.0625 38.2877 79.0625C38.2877 79.0625 38.2877 79.0625 38.2877 79.0625C38.2877 79.0625 38.2877 79.0625 38.2877 79.0625C38.2877 79.0625 38.2877 79.0625 38.2877 79.0625C38.2877 79.0625 38.2877 79.0625 38.2877 79.0625C38.2877 79.0625 38.2877 79.0625 38.2877 79.0625C38.2877 79.0625 38.2877 79.0625 38.2877 79.0625C38.2877 79.0625 38.2877 79.0625 38.2877 79.0625C38.2877 79.0625 38.2877 79.0625 38.2877 79.0625C38.2877 79.0625 38.2877 79.0625 38.2877 79.0625C38.2877 79.0625 38.2877 79.0625 38.2877 79.0625C38.2877 79.0625 38.2877 79.0625 38.2877 79.0625C38.2877 79.0625 38.2877 79.0625 38.2877 79.0625C38.2877 79.0625 38.2877 79.0625 38.2877 79.0625C38.2877 79.0625 38.2877 79.0625 38.2877 79.0625C38.2877 79.0625 38.2877 79.0625 38.2877 79.0625C38.2877 79.0625 38.2877 79.0625 38.2877 79.0625C38.2877 79.0625 38.2877 79.0625 38.2877 79.0625C38.2877 79.0625 38.2877 79.0625 38.2877 79.0625C38.2877 79.0625 38.2877 79.0625 38.2877 79.0625C38.2877 79.0625 38.2877 79.0625 38.2877 79.0625C38.2877 79.0625 38.2877 79.0625 38.2877 79.0625C38.2877 79.0625 38.2877 79.0625 38.2877 79.0625C38.2877 79.0625 38.2877 79.0625 38.2877 79.0625C38.2877 79.0625 38.2877 79.0625 38.2877 79.0625C38.2877 79.0625 38.2877 79.0625 38.2877 79.0625C38.2877 79.0625 38.2877 79.0625 38.2877 79.0625C38.2877 79.0625 38.2877 79.0625 38.2877 79.0625C38.2877 79.0625 38.2877 79.0625 38.2877 79.0625C38.2877 79.0625 38.2877 79.0625 38.2877 79.0625C38.2877 79.0625 38.2877 79.0625 38.2877 79.0625C38.2877 79.0625 38.2877 79.0625 38.2877 79.0625C38.2877 79.0625 38.2877 79.0625 38.2877 79.0625C38.2877 79.0625 38.2877 79.0625 38.2877 79.0625C38.2877 79.0625 38.2877 79.0625 38.2877 79.0625C38.2877 79.0625 38.2877 79.0625 38.2877 79.0625C38.2877 79.0625 38.2877 79.0625 38.2877 79.0625C38.2877 79.0625 38.2877 79.0625 38.2877 79.0625C38.2877 79.0625 38.2877 79.0625 38.2877 79.0625C38.2877 79.0625 38.2877 79.0625 38.2877 79.0625C38.2878 79.0625 38.2878 79.0625 38.2878 79.0625C38.2878 79.0625 38.2878 79.0625 38.2878 79.0625C38.2878 79.0625 38.2878 79.0625 38.2878 79.0625C38.2878 79.0625 38.2878 79.0625 38.2878 79.0625C38.2878 79.0625 38.2878 79.0625 38.2878 79.0625C38.2878 79.0625 38.2878 79.0625 38.2878 79.0625C38.2878 79.0625 38.2878 79.0625 38.2878 79.0625C38.2878 79.0625 38.2878 79.0625 38.2878 79.0625C38.2878 79.0625 38.2878 79.0625 38.2878 79.0625C38.2878 79.0625 38.2878 79.0625 38.2878 79.0625C38.2878 79.0625 38.2878 79.0625 38.2878 79.0625C38.2878 79.0625 38.2878 79.0625 38.2878 79.0625C38.2878 79.0625 38.2878 79.0625 38.2878 79.0625C38.2878 79.0625 38.2878 79.0625 38.2878 79.0625C38.2878 79.0625 38.2878 79.0625 38.2878 79.0625C38.2878 79.0625 38.2878 79.0625 38.2878 79.0625C38.2878 79.0625 38.2878 79.0625 38.2878 79.0625C38.2878 79.0625 38.2878 79.0625 38.2878 79.0625C38.2878 79.0625 38.2878 79.0625 38.2878 79.0625C38.2878 79.0625 38.2878 79.0625 38.2878 79.0625C38.2878 79.0625 38.2878 79.0625 38.2878 79.0625C38.2878 79.0625 38.2878 79.0625 38.2878 79.0625C38.2878 79.0625 38.2878 79.0625 38.2878 79.0625C38.2878 79.0625 38.2878 79.0625 38.2878 79.0625C38.2878 79.0625 38.2878 79.0625 38.2878 79.0625C38.2878 79.0625 38.2878 79.0625 38.2878 79.0625C38.2878 79.0625 38.2878 79.0625 38.2878 79.0625C38.2878 79.0625 38.2878 79.0625 38.2878 79.0625C38.2878 79.0625 38.2878 79.0625 38.2878 79.0625C38.2878 79.0625 38.2878 79.0625 38.2878 79.0625C38.2878 79.0625 38.2878 79.0625 38.2878 79.0625C38.2878 79.0625 38.2878 79.0625 38.2878 79.0625C38.2878 79.0625 38.2878 79.0625 38.2878 79.0625C38.2878 79.0625 38.2878 79.0625 38.2878 79.0625C38.2878 79.0625 38.2878 79.0625 38.2878 79.0625C38.2878 79.0625 38.2878 79.0625 38.2878 79.0625C38.2878 79.0625 38.2878 79.0625 38.2878 79.0625C38.2878 79.0625 38.2878 79.0625 38.2878 79.0625C38.2878 79.0625 38.2878 79.0625 38.2878 79.0625C38.2878 79.0625 38.2878 79.0625 38.2878 79.0625C38.2878 79.0625 38.2878 79.0625 38.2878 79.0625C38.2878 79.0625 38.2878 79.0625 38.2878 79.0625C38.2878 79.0625 38.2878 79.0625 38.2878 79.0625C38.2878 79.0625 38.2878 79.0625 38.2878 79.0625C38.2878 79.0625 38.2878 79.0625 38.2878 79.0625C38.2878 79.0625 38.2878 79.0625 38.2878 79.0625C38.2878 79.0625 38.2878 79.0625 38.2878 79.0625C38.2878 79.0625 38.2878 79.0625 38.2878 79.0625C38.2878 79.0625 38.2878 79.0625 38.2878 79.0625C38.2878 79.0625 38.2878 79.0625 38.2878 79.0625V77.0625ZM76.0001 39.3502C76.0001 60.1782 59.1158 77.0625 38.2878 77.0625V79.0625C60.2203 79.0625 78.0001 61.2827 78.0001 39.3502H76.0001ZM38.2878 1.63794C59.1158 1.63794 76.0001 18.5223 76.0001 39.3502H78.0001C78.0001 17.4177 60.2203 -0.362061 38.2878 -0.362061V1.63794ZM38.2869 1.63794C38.2872 1.63794 38.2875 1.63794 38.2878 1.63794V-0.362061C38.2875 -0.362061 38.2872 -0.362061 38.2868 -0.362061L38.2869 1.63794ZM37.2869 0.637939V78.0625H39.2869V0.637939H37.2869Z" fill="#DF991B" mask="url(#path-1-inside-1_1_355)"/>
<circle cx="38.1593" cy="39.3502" r="38.1593" fill="white"/>
<circle cx="38.9915" cy="38.1385" r="22.2222" fill="black"/>
<circle cx="38.9911" cy="38.1376" r="23.5" stroke="black"/>
<path d="M46.1518 47.098H47.4116C49.1114 47.098 50.4512 46.6286 51.4311 45.6896C52.411 44.7506 53.3909 43.1175 54.3707 40.7701C54.5107 40.4639 54.6307 40.321 54.7907 40.321C54.8307 40.321 54.8707 40.321 54.9107 40.321C54.9507 40.321 54.9707 40.321 54.9907 40.321L53.4709 47.9146C52.611 47.6492 50.9112 47.5063 48.3715 47.5063H37.2129V47.343C37.2129 47.2001 37.3529 47.1185 37.6528 47.0368C37.9528 46.9756 38.2928 46.8939 38.6527 46.8327C39.0327 46.751 39.3526 46.5061 39.6526 46.0978C39.9526 45.6896 40.0925 45.118 40.0925 44.3627V31.0331C40.0925 30.4207 39.9526 29.9512 39.6526 29.6246C39.3526 29.298 39.0327 29.0939 38.6727 29.0326C38.3128 28.9714 37.9928 28.8897 37.6928 28.8285C37.3929 28.7469 37.2529 28.6448 37.2529 28.5223V28.359H46.6317V28.5223C46.6317 28.6652 46.4717 28.7673 46.1718 28.8285C45.8718 28.9102 45.5319 28.9714 45.1719 29.0326C44.8119 29.0939 44.472 29.298 44.172 29.645C43.8721 29.992 43.7121 30.4615 43.7121 31.0535C43.7121 32.3191 43.7121 34.6054 43.7121 37.9122C43.7121 41.2191 43.7121 43.485 43.7121 44.771C43.7121 45.5263 43.9121 46.1182 44.292 46.5061C44.672 46.9143 45.3119 47.098 46.1718 47.098H46.1518Z" fill="white"/>
<path fill-rule="evenodd" clip-rule="evenodd" d="M33.6578 46.8828C32.2272 46.7078 31.1983 46.2058 30.5811 45.367C29.7981 44.3028 29.3965 42.7568 29.3965 40.7087V32.3358C29.3965 31.5528 29.517 30.8902 29.7378 30.3079C29.8382 29.9264 30.039 29.6051 30.3201 29.3843C30.6012 29.1634 30.9024 29.0228 31.2036 28.9827C31.5048 28.9425 31.7658 28.8823 32.0067 28.822C32.2276 28.7417 32.3481 28.6614 32.3481 28.5209V28.3602H22.9913V28.5209C22.9913 28.6413 23.152 28.7417 23.4331 28.822C23.5042 28.8373 23.5792 28.8538 23.6571 28.871C23.8869 28.9216 24.1419 28.9778 24.3969 29.0228C24.7382 29.0831 25.0795 29.2839 25.3606 29.6051C25.6618 29.9264 25.8024 30.3882 25.8024 30.9906V40.5079C25.8024 45.0947 28.4272 47.4426 33.6578 47.5328V46.8828Z" fill="white"/>
</svg>
