<svg width="21" height="22" viewBox="0 0 21 22" fill="none" xmlns="http://www.w3.org/2000/svg">
<path d="M10.3346 7.84473C8.59816 7.84473 7.17078 9.25739 7.17078 11.0085C7.17078 12.7596 8.58344 14.1723 10.3346 14.1723C12.0857 14.1723 13.4983 12.7596 13.4983 11.0085C13.4983 9.25739 12.0857 7.84473 10.3346 7.84473Z" fill="#7E7E7E"/>
<path d="M15.941 0.986328L4.53667 0.986328C2.1528 0.986328 0.225098 2.91403 0.225098 5.2979L0.225098 16.7022C0.225098 19.0861 2.1528 21.0138 4.53667 21.0138L15.941 21.0138C18.3249 21.0138 20.2526 19.0861 20.2526 16.7022L20.2526 5.2979C20.2526 2.91403 18.3249 0.986328 15.941 0.986328ZM10.3198 15.937C7.59745 15.937 5.39016 13.7297 5.39016 11.0074C5.39016 8.2851 7.59745 6.07781 10.3198 6.07781C13.0421 6.07781 15.2494 8.2851 15.2494 11.0074C15.2494 13.7297 13.0421 15.937 10.3198 15.937ZM15.5437 6.91658C14.8962 6.91658 14.3665 6.38683 14.3665 5.73936C14.3665 5.09189 14.8962 4.56214 15.5437 4.56214C16.1912 4.56214 16.7209 5.09189 16.7209 5.73936C16.7209 6.38683 16.1912 6.91658 15.5437 6.91658Z" fill="#7E7E7E"/>
</svg>
