<svg width="266" height="25" viewBox="0 0 266 25" fill="none" xmlns="http://www.w3.org/2000/svg">
<path d="M10.5124 22.4814C6.64066 22.4814 4.48424 20.374 3.38152 18.5851C2.40132 17.0413 1.88672 15.1299 1.88672 13.096V0.892578H2.86691V13.096C2.86691 14.9584 3.33251 16.6737 4.19018 18.046C5.61146 20.3249 7.74338 21.4767 10.4879 21.4767C13.2325 21.4767 15.3644 20.3249 16.8102 18.046C17.6924 16.6492 18.158 14.9339 18.158 13.0715V0.892578H19.1381V13.0715C19.1381 15.1299 18.6235 17.0168 17.6434 18.5851C16.5161 20.374 14.3842 22.4814 10.4879 22.4814H10.5124Z" fill="white"/>
<path d="M10.5126 24.3192C6.98389 24.3192 4.21484 23.094 2.22994 20.668C0.808661 18.9037 0 16.5512 0 14.0762V0.892578H1.0047V14.0762C1.0047 16.3306 1.71534 18.4381 3.0141 20.0309C4.77845 22.2118 7.30245 23.3145 10.5126 23.3145C13.7227 23.3145 16.2467 22.2118 18.0356 20.0064C19.3343 18.4136 20.045 16.2816 20.045 14.0272V0.892578H21.0252V14.0272C21.0252 16.5022 20.241 18.8547 18.7952 20.619C16.8103 23.045 14.0168 24.2947 10.4881 24.2947L10.5126 24.3192Z" fill="white"/>
<path d="M57.1208 0.892578H56.1406V23.8046H57.1208V0.892578Z" fill="white"/>
<path d="M58.9597 0.892578H57.9795V23.8046H58.9597V0.892578Z" fill="white"/>
<path d="M48.9607 23.8291V0.892578H47.956V22.6284L28.9893 3.63712V23.8291H29.9695V6.0386L47.76 23.8291H48.9607Z" fill="white"/>
<path d="M46.1662 0.917083V18.4136L28.3511 0.892578H27.1504V23.8291H28.1306V2.09332L47.1464 20.7905V0.917083H46.1662Z" fill="white"/>
<path d="M78.5381 15.2032L86.9678 23.7309L87.6784 22.9958L78.5381 13.8555V15.2032Z" fill="white"/>
<path d="M89.4434 12.3604C89.4434 5.81756 84.1258 0.5 77.583 0.5C71.0402 0.5 65.7227 5.81756 65.7227 12.3604C65.7227 18.9032 71.0402 24.2207 77.583 24.2207C80.1315 24.2207 82.5085 23.3876 84.4444 22.0153L83.7337 21.3046C81.9694 22.5054 79.862 23.2405 77.583 23.2405C71.5793 23.2405 66.7029 18.3641 66.7029 12.3604C66.7029 6.35667 71.6038 1.4802 77.583 1.4802C83.5622 1.4802 88.4632 6.35667 88.4632 12.3604C88.4632 14.8599 87.6055 17.1633 86.1842 19.0012C85.9882 19.2707 85.7676 19.5158 85.5226 19.7608L86.2332 20.4715L88.1446 22.3829L88.8553 21.6722L86.8704 19.7118C88.4632 17.7024 89.4434 15.1539 89.4434 12.3604Z" fill="white"/>
<path d="M80.3505 13.242H79.0027L84.1242 18.3635L84.8349 19.0742C85.0554 18.8291 85.276 18.5841 85.472 18.3145C86.7217 16.6482 87.4814 14.5898 87.4814 12.3598C87.4814 6.91976 83.046 2.48438 77.6059 2.48438C72.1659 2.48438 67.7305 6.91976 67.7305 12.3598C67.7305 17.7999 72.1659 22.2353 77.6059 22.2353C79.6888 22.2353 81.6002 21.5982 83.193 20.4955L82.4824 19.7848C81.0856 20.716 79.3948 21.2551 77.6059 21.2551C72.705 21.2551 68.7107 17.2608 68.7107 12.3598C68.7107 7.45886 72.705 3.46457 77.6059 3.46457C82.5069 3.46457 86.5012 7.45886 86.5012 12.3598C86.5012 14.3202 85.8641 16.1336 84.7614 17.6039L80.3505 13.242Z" fill="white"/>
<path d="M108.189 23.4134H109.733C111.816 23.4134 113.458 22.8498 114.658 21.7226C115.859 20.5954 117.06 18.635 118.261 15.8169C118.432 15.4494 118.579 15.2778 118.775 15.2778C118.824 15.2778 118.873 15.2778 118.922 15.2778C118.971 15.2778 118.996 15.2778 119.02 15.2778L117.158 24.3936C116.104 24.0751 114.021 23.9035 110.909 23.9035H97.2354V23.7075C97.2354 23.536 97.4069 23.4379 97.7745 23.3399C98.142 23.2664 98.5586 23.1684 98.9997 23.0949C99.4653 22.9969 99.8574 22.7028 100.225 22.2127C100.593 21.7226 100.764 21.0365 100.764 20.1298V4.12811C100.764 3.39296 100.593 2.82935 100.225 2.43727C99.8574 2.04519 99.4653 1.80014 99.0242 1.72663C98.5831 1.65311 98.191 1.5551 97.8235 1.48158C97.4559 1.38356 97.2844 1.26104 97.2844 1.11401V0.917969H108.777V1.11401C108.777 1.28554 108.581 1.40807 108.214 1.48158C107.846 1.5796 107.429 1.65311 106.988 1.72663C106.547 1.80014 106.131 2.04519 105.763 2.46178C105.395 2.87836 105.199 3.44197 105.199 4.15261C105.199 5.67192 105.199 8.41646 105.199 12.3863C105.199 16.356 105.199 19.0761 105.199 20.6199C105.199 21.5266 105.444 22.2372 105.91 22.7028C106.376 23.1929 107.16 23.4134 108.214 23.4134H108.189Z" fill="white"/>
<path d="M145.828 14.2471C145.828 20.9614 142.814 24.3186 136.786 24.3186C130.145 24.3186 126.813 21.4515 126.813 15.7419V4.12658C126.813 3.39143 126.641 2.82782 126.273 2.43574C125.93 2.04367 125.514 1.79862 125.097 1.7251C124.681 1.65159 124.264 1.55357 123.921 1.48005C123.578 1.38203 123.382 1.25951 123.382 1.11248V0.916441H134.801V1.11248C134.801 1.28401 134.654 1.38203 134.385 1.48005C134.09 1.55357 133.772 1.62708 133.404 1.67609C133.037 1.7251 132.669 1.89664 132.326 2.16619C131.983 2.43574 131.738 2.82782 131.615 3.29341C131.346 4.00406 131.199 4.81272 131.199 5.76841V15.9869C131.199 18.4864 131.689 20.3733 132.645 21.6721C133.6 22.9708 135.365 23.608 137.913 23.608C140.143 23.608 141.932 22.8483 143.255 21.3045C144.579 19.7852 145.216 17.5798 145.216 14.7127V5.2293C145.216 4.2491 144.995 3.46495 144.579 2.90134C144.162 2.33772 143.696 1.97015 143.182 1.84763C142.667 1.7251 142.226 1.60258 141.785 1.48005C141.368 1.35753 141.148 1.235 141.148 1.06347V0.867432H149.798V1.06347C149.798 1.235 149.602 1.35753 149.185 1.48005C148.769 1.60258 148.328 1.7251 147.813 1.84763C147.299 1.97015 146.858 2.31322 146.441 2.90134C146.024 3.46495 145.828 4.2491 145.828 5.2293V14.2471Z" fill="white"/>
<path d="M169.941 20.2751L165.726 13.7568L162.639 18.1677C161.365 20.0301 160.727 21.2308 160.727 21.7944C160.727 22.1865 160.875 22.4806 161.169 22.7256C161.463 22.9462 161.781 23.0932 162.124 23.1422C162.467 23.1912 162.786 23.2647 163.08 23.3628C163.374 23.4608 163.521 23.5833 163.521 23.7303V23.9019H154.944V23.7303C154.944 23.5588 155.042 23.4608 155.238 23.3873C155.434 23.3137 155.728 23.2402 156.121 23.1422C156.513 23.0442 156.954 22.8727 157.444 22.6521C157.934 22.4316 158.498 22.0395 159.159 21.4759C159.821 20.9123 160.458 20.1771 161.071 19.2704L165.383 13.1932L160.066 4.93509C159.625 4.24895 159.184 3.66083 158.694 3.17074C158.203 2.68064 157.787 2.33757 157.444 2.11703C157.101 1.89648 156.758 1.72495 156.464 1.60242C156.17 1.4799 155.949 1.38188 155.802 1.28386C155.655 1.18584 155.581 1.11233 155.581 1.03881V0.842773H166.633V1.03881C166.633 1.21035 166.486 1.33287 166.217 1.40639C165.947 1.50441 165.628 1.57792 165.31 1.65143C164.967 1.72495 164.673 1.84747 164.403 2.06802C164.134 2.26406 163.987 2.55811 163.987 2.92569C163.987 3.24425 164.207 3.78336 164.648 4.54301C165.089 5.30266 165.751 6.33186 166.633 7.65513C167.515 8.95389 168.079 9.81156 168.324 10.2281L171.314 5.81726C172.196 4.494 172.661 3.56281 172.661 2.9992C172.661 2.60712 172.539 2.31307 172.294 2.09252C172.049 1.87198 171.755 1.74945 171.461 1.70044C171.167 1.65143 170.873 1.57792 170.627 1.4799C170.382 1.38188 170.26 1.23485 170.26 1.06332V0.867278H178.616V1.06332C178.616 1.23485 178.445 1.40639 178.077 1.5044C177.734 1.62693 177.268 1.74945 176.729 1.89648C176.19 2.04351 175.479 2.4601 174.597 3.14623C173.715 3.83237 172.882 4.76355 172.049 5.91528L168.667 10.7182L175.308 20.8633C175.773 21.5004 176.264 22.015 176.803 22.4071C177.342 22.7991 177.783 23.0197 178.15 23.1177C178.494 23.1912 178.812 23.2892 179.057 23.3628C179.302 23.4608 179.425 23.5588 179.425 23.7058V23.9019H167.858V23.7303C167.858 23.5833 168.005 23.4853 168.275 23.3628C168.545 23.2647 168.863 23.1667 169.206 23.1177C169.549 23.0442 169.868 22.8972 170.137 22.7011C170.407 22.4806 170.554 22.211 170.554 21.868C170.554 21.4024 170.358 20.8633 169.941 20.2506V20.2751Z" fill="white"/>
<path d="M207.116 14.2471C207.116 20.9614 204.102 24.3186 198.074 24.3186C191.433 24.3186 188.101 21.4515 188.101 15.7419V4.12658C188.101 3.39143 187.929 2.82782 187.561 2.43574C187.218 2.04367 186.802 1.79862 186.385 1.7251C185.969 1.65159 185.552 1.55357 185.209 1.48005C184.866 1.38203 184.67 1.25951 184.67 1.11248V0.916441H196.089V1.11248C196.089 1.28401 195.942 1.38203 195.673 1.48005C195.379 1.55357 195.06 1.62708 194.692 1.67609C194.325 1.7251 193.957 1.89664 193.614 2.16619C193.271 2.43574 193.026 2.82782 192.904 3.29341C192.634 4.00406 192.487 4.81272 192.487 5.76841V15.9869C192.487 18.4864 192.977 20.3733 193.933 21.6721C194.888 22.9708 196.653 23.608 199.201 23.608C201.431 23.608 203.22 22.8483 204.543 21.3045C205.867 19.7852 206.504 17.5798 206.504 14.7127V5.2293C206.504 4.2491 206.283 3.46495 205.867 2.90134C205.45 2.33772 204.984 1.97015 204.47 1.84763C203.955 1.7251 203.514 1.60258 203.073 1.48005C202.657 1.35753 202.436 1.235 202.436 1.06347V0.867432H211.086V1.06347C211.086 1.235 210.89 1.35753 210.474 1.48005C210.057 1.60258 209.616 1.7251 209.101 1.84763C208.587 1.97015 208.146 2.31322 207.729 2.90134C207.312 3.46495 207.116 4.2491 207.116 5.2293V14.2471Z" fill="white"/>
<path d="M225.372 12.9727H224.588V20.2996C224.588 21.1573 224.784 21.8189 225.152 22.2845C225.519 22.7501 225.936 23.0442 226.377 23.1177C226.818 23.1912 227.234 23.2892 227.602 23.3628C227.97 23.4608 228.166 23.5833 228.166 23.7303V23.9019H216.673V23.7303C216.673 23.5588 216.844 23.4118 217.212 23.3137C217.58 23.2157 217.972 23.1422 218.437 23.0442C218.878 22.9462 219.295 22.6276 219.662 22.0885C220.03 21.5494 220.202 20.8142 220.202 19.8341V4.12643C220.202 3.39128 220.03 2.82767 219.662 2.41109C219.295 1.9945 218.903 1.74945 218.462 1.70044C218.021 1.65143 217.629 1.55341 217.261 1.4799C216.893 1.40639 216.722 1.25936 216.722 1.08782V0.842773H226.695C229.783 0.842773 232.184 1.33287 233.924 2.31307C235.64 3.29326 236.522 4.81256 236.522 6.87097C236.522 8.65983 235.689 10.1301 234.047 11.3064C232.38 12.4826 230.053 13.0462 227.038 13.0462C226.94 13.0462 226.769 13.0462 226.524 13.0462C226.279 13.0462 226.107 13.0462 226.034 13.0462C226.989 14.1979 228.803 14.737 231.449 14.688L235.885 20.9613C236.522 21.8435 237.208 22.4806 237.943 22.8236C238.678 23.1667 239.242 23.3873 239.634 23.4363C240.026 23.4853 240.222 23.6323 240.222 23.8283V23.9754H233.189L225.397 12.9972L225.372 12.9727ZM224.588 1.40639V12.4336H225.985C227.823 12.4336 229.244 11.919 230.298 10.9143C231.327 9.88507 231.866 8.58631 231.866 6.94449C231.866 5.30266 231.327 3.90588 230.249 2.92569C229.17 1.92099 227.774 1.43089 226.058 1.43089H224.612L224.588 1.40639Z" fill="white"/>
<path d="M256.272 12.801H256.37L259.801 6.08663C260.462 4.83689 260.805 3.9057 260.805 3.31758C260.805 2.72947 260.56 2.28838 260.07 2.04333C259.58 1.77378 259.09 1.60224 258.6 1.50422C258.11 1.4062 257.865 1.28368 257.865 1.13665V0.891602H266.001V1.13665C266.001 1.30818 265.829 1.43071 265.51 1.52873C265.192 1.62675 264.8 1.72477 264.334 1.84729C263.869 1.94531 263.305 2.28838 262.692 2.85199C262.08 3.4156 261.492 4.17525 261.002 5.13094C259.752 7.48341 258.281 10.277 256.615 13.5361V20.3485C256.615 21.2061 256.811 21.8678 257.179 22.3334C257.546 22.799 257.963 23.093 258.404 23.1665C258.845 23.24 259.262 23.3381 259.629 23.4116C259.997 23.5096 260.193 23.6321 260.193 23.7792V23.9507H248.749V23.7792C248.749 23.6076 248.921 23.4851 249.288 23.4116C249.656 23.3136 250.048 23.24 250.464 23.142C250.881 23.044 251.273 22.7745 251.641 22.2844C252.008 21.7943 252.18 21.1326 252.18 20.2995V14.1732L246.446 3.97922C246.078 3.34209 245.686 2.82749 245.22 2.45991C244.779 2.09234 244.387 1.84729 244.069 1.74927C243.75 1.65125 243.481 1.57774 243.26 1.47972C243.039 1.3817 242.941 1.25917 242.941 1.11215V0.916106H253.601V1.16116C253.601 1.30818 253.454 1.4062 253.16 1.50422C252.866 1.60224 252.572 1.67576 252.229 1.72477C251.886 1.77378 251.592 1.92081 251.298 2.14135C251.004 2.36189 250.856 2.63145 250.856 2.97452C250.856 3.26857 250.955 3.56263 251.126 3.85669L256.199 12.85L256.272 12.801Z" fill="white"/>
</svg>
