<svg width="20" height="22" viewBox="0 0 20 22" fill="none" xmlns="http://www.w3.org/2000/svg">
<path d="M15.6943 0.5H4.30566C1.92506 0.5 0 2.52131 0 5.02094V16.9791C0 19.4787 1.92506 21.5 4.30566 21.5H15.6943C18.0749 21.5 20 19.4787 20 16.9791V5.02094C20 2.52131 18.0749 0.5 15.6943 0.5ZM14.5481 11.594L11.036 13.7234L7.52388 15.8527C7.09772 16.115 6.5687 15.791 6.5687 15.2663V6.74908C6.5687 6.22447 7.09772 5.91587 7.52388 6.16275L11.036 8.29207L14.5481 10.4214C14.9743 10.6837 14.9743 11.3317 14.5481 11.5786V11.594Z" fill="#7E7E7E"/>
</svg>
