<svg width="23" height="20" viewBox="0 0 23 20" fill="none" xmlns="http://www.w3.org/2000/svg">
<path d="M22.8888 2.80082C22.1521 3.13627 21.3459 3.33195 20.5675 3.47172C20.9428 3.40184 21.4849 2.73094 21.7073 2.45139C22.0409 2.03208 22.3189 1.55686 22.4857 1.03971C22.4996 0.997775 22.5274 0.941867 22.4857 0.913913C22.4301 0.899936 22.4023 0.913913 22.3606 0.913913C21.4849 1.38913 20.5675 1.72458 19.6084 1.97617C19.525 1.99015 19.4694 1.97617 19.4138 1.92026C19.3304 1.82242 19.2609 1.73856 19.1775 1.66868C18.7744 1.31925 18.3295 1.05368 17.843 0.844027C17.1897 0.578462 16.4947 0.466646 15.7997 0.508577C15.1186 0.550508 14.4514 0.746188 13.8537 1.05368C13.256 1.37516 12.7139 1.80845 12.283 2.33958C11.8382 2.88468 11.5185 3.54161 11.3517 4.22649C11.1849 4.88341 11.1988 5.54033 11.2961 6.21123C11.31 6.32305 11.2961 6.33703 11.1988 6.32305C7.41792 5.74999 4.27648 4.39421 1.71885 1.473C1.60765 1.3472 1.55205 1.3472 1.45475 1.473C0.342736 3.15025 0.884839 5.84783 2.27486 7.17565C2.45556 7.35736 2.65016 7.52508 2.85866 7.69281C2.78916 7.70678 1.85785 7.60894 1.02384 7.17565C0.91264 7.10577 0.857041 7.1477 0.843141 7.27349C0.843141 7.45519 0.843141 7.62292 0.870942 7.8186C1.07944 9.52381 2.26096 11.1032 3.85948 11.7182C4.05408 11.8021 4.26258 11.872 4.47108 11.8999C4.10968 11.9838 3.73437 12.0397 2.67796 11.9558C2.55286 11.9279 2.49726 11.9978 2.55286 12.1235C3.34517 14.29 5.04099 14.9329 6.31981 15.2963C6.48661 15.3243 6.66731 15.3243 6.83411 15.3662C6.83411 15.3802 6.82021 15.3802 6.80631 15.3942C6.3893 16.0371 4.91589 16.5263 4.23478 16.7639C2.99767 17.1972 1.63545 17.3929 0.328833 17.2671C0.120331 17.2392 0.0786315 17.2392 0.0230308 17.2671C-0.0325698 17.309 0.0230294 17.351 0.0786301 17.4069C0.342733 17.5886 0.620737 17.7423 0.89874 17.8961C1.73275 18.3434 2.60846 18.6928 3.51197 18.9444C8.21023 20.2442 13.4923 19.2938 17.0229 15.7716C19.7891 13.0041 20.7621 9.18836 20.7621 5.37261C20.7621 5.21886 20.9428 5.135 21.0401 5.06511C21.7629 4.52 22.3467 3.86308 22.8749 3.13627C23 2.96855 23 2.82878 23 2.77287C23 2.689 23 2.71696 22.9027 2.75889L22.8888 2.80082Z" fill="#7E7E7E"/>
</svg>
